<svg xmlns="http://www.w3.org/2000/svg" width="70" height="90" viewBox="0 0 70 90"><g><g><g><path fill="#444" d="M.13.88c14.219 13.237 13.238 31.867 13.238 31.867l.084-.004c1.865-3.59 5.546-5.946 9.76-5.946.61 0 1.218.068 1.823.169-1.67-11.354-7.202-19.634-16.497-24.62A35.975 35.975 0 0 0 3.66.19C1.496.455.13.88.13.88z"/></g><g><path fill="#444" d="M31.986 31.135C29.923 4.965 16.466.235 7.71 0c8.115 3.857 17.099 11.665 19.196 27.44a11.014 11.014 0 0 1 5.08 3.695z"/></g><g><path fill="#444" d="M68.304 58.855l-20.75-14.13a3.586 3.586 0 1 0-5.927-4.037l-8.074 11.855a3.586 3.586 0 1 0 5.928 4.038l20.749 14.13a3.586 3.586 0 0 0 4.983-.945l4.038-5.928a3.588 3.588 0 0 0-.947-4.983z"/></g><g><path fill="#444" d="M39.133 41.167l-4.87-3.317c0 .816-.08 1.642-.269 2.47a10.992 10.992 0 0 1-5.004 6.956l4.088 2.785z"/></g><g><path fill="#444" d="M7.25 88.314l6.992 1.595a3.586 3.586 0 0 0 4.295-2.698l5.587-24.474a3.586 3.586 0 1 0 1.596-6.993l-13.985-3.193a3.586 3.586 0 1 0-1.595 6.993L4.55 84.019a3.586 3.586 0 0 0 2.7 4.294z"/></g><g><path fill="#444" d="M15.442 44.378l.263-1.157c-1.484-2.08-2.137-4.739-1.524-7.427a9.206 9.206 0 0 1 1.386-3.143c1.705-2.501 4.556-4.061 7.637-4.061a9.327 9.327 0 0 1 2.069.235 9.211 9.211 0 0 1 1.856.643c1.284.6 2.363 1.492 3.227 2.554a9.23 9.23 0 0 1 2.003 4.53 9.203 9.203 0 0 1-.116 3.366c-.646 2.82-2.523 5.023-4.928 6.217a9.25 9.25 0 0 1-1.37.55l-.226.99-.224.981-1.127 4.943-10.488-2.393 1.313-5.747zm8.436-9.437a2.989 2.989 0 1 0-1.33 5.827 2.989 2.989 0 0 0 1.33-5.827z"/></g></g></g></svg>