<svg xmlns="http://www.w3.org/2000/svg" width="90" height="90" viewBox="0 0 90 90"><g><g><g/><g><g><g><g><path fill="#444" d="M15.965 51.58a4.36 4.36 0 0 0-4.355 4.355V79.16a4.36 4.36 0 0 0 4.355 4.355 4.36 4.36 0 0 0 4.355-4.355v-1.452h-2.904v1.452a1.452 1.452 0 0 1-2.903 0V55.935a1.452 1.452 0 0 1 2.903 0v18.87h2.904v-18.87a4.36 4.36 0 0 0-4.355-4.355z"/></g><g><path fill="#444" d="M30.485 51.58a4.36 4.36 0 0 0-4.355 4.355V79.16a4.36 4.36 0 0 0 4.355 4.355 4.36 4.36 0 0 0 4.355-4.355v-1.452h-2.904v1.452a1.452 1.452 0 0 1-2.903 0V55.935a1.452 1.452 0 0 1 2.903 0v18.87h2.904v-18.87a4.36 4.36 0 0 0-4.355-4.355z"/></g><g><path fill="#444" d="M45.005 51.58a4.36 4.36 0 0 0-4.355 4.355V79.16a4.36 4.36 0 0 0 4.355 4.355 4.36 4.36 0 0 0 4.355-4.355v-1.452h-2.904v1.452a1.452 1.452 0 0 1-2.903 0V55.935a1.452 1.452 0 0 1 2.903 0v18.87h2.904v-18.87a4.36 4.36 0 0 0-4.355-4.355z"/></g><g><path fill="#444" d="M85.998 51.927A6.27 6.27 0 0 1 90 57.797v.546c0 3.307-2.567 5.997-5.806 6.257v17.47c0 4.002-3.256 7.258-7.258 7.258H13.064c-4.002 0-7.258-3.256-7.258-7.258V48.683A5.812 5.812 0 0 1 0 42.876a5.812 5.812 0 0 1 5.806-5.806h78.388A5.812 5.812 0 0 1 90 42.876a5.812 5.812 0 0 1-5.806 5.807v2.536zm-30.43-11.954l14.78 5.807h13.846a2.906 2.906 0 0 0 2.903-2.904 2.906 2.906 0 0 0-2.903-2.903zm22.17 8.71l3.552 1.395v-1.395zm-35.641-5.807A2.906 2.906 0 0 0 45 45.78a2.906 2.906 0 0 0 2.903-2.904A2.906 2.906 0 0 0 45 39.973a2.906 2.906 0 0 0-2.903 2.903zM40 45.78a5.747 5.747 0 0 1-.807-2.904c0-1.062.307-2.045.807-2.903H5.806a2.906 2.906 0 0 0-2.903 2.903 2.906 2.906 0 0 0 2.903 2.904zm41.29 18.394l-2.904-1.183v11.82h-2.903V61.809l-2.903-1.183v18.542a1.452 1.452 0 0 0 2.903 0v-1.452h2.903v1.452a4.36 4.36 0 0 1-4.355 4.355 4.36 4.36 0 0 1-4.355-4.355V59.444l-5.806-2.366v22.089a4.36 4.36 0 0 1-4.355 4.355 4.36 4.36 0 0 1-4.355-4.355V55.94c0-.781.218-1.523.591-2.17l-12.487-5.088H8.71V82.07a4.36 4.36 0 0 0 4.355 4.355h63.87a4.36 4.36 0 0 0 4.355-4.355zM58.064 79.167a1.452 1.452 0 0 0 2.903 0V55.94c0-.018-.01-.033-.01-.05l-2.436-.992a1.442 1.442 0 0 0-.457 1.042zm29.032-20.824v-.545a3.385 3.385 0 0 0-2.159-3.168L50.5 41.101c.182.563.306 1.153.306 1.775 0 1.96-.98 3.686-2.472 4.739l34.074 13.881a3.408 3.408 0 0 0 4.689-3.153z"/></g><g><path fill="#444" d="M40.643 28.36H37.74v5.806h2.903z"/></g><g><path fill="#444" d="M37.746 6.502v18.954h2.903V5.414l4.355-1.633 4.355 1.633v25.849h2.903V6.503l3.844 1.442 1.022-2.72L45.004.68 32.88 5.225l1.022 2.72z"/></g><g><path fill="#444" d="M20.323 31.26H17.42v2.903h2.903z"/></g><g><path fill="#444" d="M8.713 18.19H5.81v15.968h2.903z"/></g><g><path fill="#444" d="M5.806 12.302v2.986h2.903v-4.074l4.355-1.633 4.355 1.633v17.139h2.903v-16.05l3.844 1.442 1.022-2.72L13.064 6.48.94 11.025l1.022 2.72z"/></g><g><path fill="#444" d="M84.193 28.36H81.29v5.806h2.903z"/></g><g><path fill="#444" d="M69.676 15.212v18.954h2.903V14.124l4.355-1.633 4.355 1.633v11.332h2.903V15.212l3.844 1.443 1.022-2.72L76.934 9.39 64.81 13.935l1.022 2.72z"/></g><g><path fill="#444" d="M62.423 31.26H59.52v2.903h2.903z"/></g><g><path fill="#444" d="M62.423 19.65H59.52v8.71h2.903z"/></g><g><path fill="#444" d="M30.483 28.36H27.58v2.903h2.903z"/></g><g><path fill="#444" d="M30.483 16.74H27.58v8.71h2.903z"/></g></g></g></g></g></g></svg>