<svg xmlns="http://www.w3.org/2000/svg" width="90" height="90" viewBox="0 0 90 90"><g><g><g/><g><g><path fill="#444" d="M87.68 45.597L73.967 31.883c.095-.954.212-1.9.212-2.88C74.178 13.012 61.167 0 45.174 0 29.18 0 16.17 13.011 16.17 29.004c0 7.228 2.709 14.036 7.526 19.37.377 1.016.578.807 6.188 6.544l33.559-33.56-5.593-5.592a2.637 2.637 0 0 0-3.728 0l-27.66 27.66c-3.195-4.133-5.019-9.126-5.019-14.422 0-13.086 10.645-23.73 23.73-23.73 12.255 0 22.25 9.368 23.486 21.3l-1.488-1.487-33.559 33.56 20.51 20.509a7.881 7.881 0 0 0 5.592 2.312c2.027 0 4.05-.77 5.593-2.312L87.68 56.782a7.857 7.857 0 0 0 2.318-5.593c0-2.111-.824-4.099-2.317-5.592z"/></g><g><path fill="#444" d="M19.636 84.092l6.907-4.992V68.553l-6.197-4.465c-.687-.71-1.513-.806-2.102-.786A23.733 23.733 0 0 0 .658 71.33a2.637 2.637 0 0 0 3.955 3.486c2.917-3.306 6.912-5.35 11.206-5.979v5.258C9.81 75.319 5.273 80.996 5.273 87.362a2.636 2.636 0 0 0 2.636 2.637 2.635 2.635 0 0 0 2.637-2.637c0-3.433 2.211-6.684 5.273-7.776v2.147c.001 1.96 2.064 3.235 3.817 2.359z"/></g><g><path fill="#444" d="M36.069 68.55H31.82v10.547h14.796z"/></g></g></g></g></svg>