<svg xmlns="http://www.w3.org/2000/svg" width="90" height="90" viewBox="0 0 90 90"><g><g><g><path fill="#f46717" d="M84 0H6a6 6 0 0 0-6 6v78a6 6 0 0 0 6 6h78a6 6 0 0 0 6-6V6a6 6 0 0 0-6-6z"/></g><g><path fill="#fff" d="M86.968 52.042c0 1.407-1.09 2.503-2.5 2.503-1.413 0-2.502-1.096-2.502-2.503s1.09-2.503 2.501-2.503c1.412 0 2.5 1.096 2.5 2.503zm-4.612 0c0 1.198.901 2.147 2.111 2.147 1.21 0 2.111-.95 2.111-2.147 0-1.198-.9-2.147-2.11-2.147s-2.112.949-2.112 2.147zm1.56 1.447h-.356v-2.894h1.109c.652 0 .94.283.94.8 0 .512-.335.741-.725.808l.86 1.286h-.416l-.814-1.286h-.598zm0-1.589h.47c.437 0 .868-.013.868-.504 0-.404-.336-.498-.686-.498h-.652V51.9"/></g><g><path fill="#fff" d="M66.408 53.513h15.668l1.462-4.02H72.896l4.527-12.454h-5.027zm-19.18 0h4.803l2.463-6.775h5.98l-2.462 6.775h4.942l5.989-16.474H64l-2.116 5.82h-5.98l2.115-5.82h-4.802zm-3.509 0l5.989-16.474h-5.026l-5.99 16.474zm-16.764 0h4.999l4.527-12.454h5.195l1.461-4.02H27.806l-1.462 4.02h5.14zm-.525-16.474H14.468c-1.709 0-2.841 1.095-3.373 2.558L9.51 43.954c-.705 1.94.29 3.374 2.2 3.374h6.233c.253 0 .441.253.34.534l-.4 1.097c-.109.3-.477.534-.727.534h-9.8l-1.461 4.02H18.53c1.394 0 2.623-.647 3.348-2.643l1.505-4.139c.713-1.961-.319-3.367-2.062-3.367h-6.261c-.347 0-.47-.253-.358-.562l.4-1.097c.132-.365.406-.646.852-.646h9.014z"/></g></g></g></svg>