<svg xmlns="http://www.w3.org/2000/svg" width="90" height="90" viewBox="0 0 90 90"><g><g><g/><g><g><g><path fill="#444" d="M65.93 24.945a1.77 1.77 0 0 0-1.242-.515c-.462 0-.916.188-1.243.515a1.768 1.768 0 0 0-.515 1.243c0 .462.188.916.515 1.243.327.327.78.515 1.243.515a1.77 1.77 0 0 0 1.242-.515c.327-.327.516-.78.516-1.243a1.77 1.77 0 0 0-.516-1.243z"/></g></g></g><g><g><g><path fill="#444" d="M26.37 49.57c.971 0 1.758.787 1.758 1.758V65.39c0 .971-.787 1.758-1.758 1.758H12.308c-.97 0-1.758-.787-1.758-1.758V51.328c0-.971.787-1.758 1.758-1.758zm-1.758 3.516H14.067v10.546h10.546z"/></g></g></g><g><g><g><path fill="#444" d="M90.002 38.498v49.746c0 .97-.788 1.758-1.758 1.758H38.498A1.758 1.758 0 0 1 37.255 87l10.95-10.951h.002v-.002l20.88-20.88h.001l.001-.001 17.912-17.912a1.758 1.758 0 0 1 3 1.243zm-3.516 4.244l-6.709 6.707 1.678 1.678a1.758 1.758 0 0 1-2.486 2.486l-1.677-1.678-4.475 4.475 1.678 1.678a1.758 1.758 0 0 1-2.486 2.486l-1.678-1.678-4.475 4.475 1.678 1.678a1.758 1.758 0 0 1-2.485 2.486l-1.678-1.678-4.475 4.474 1.678 1.678a1.758 1.758 0 1 1-2.486 2.486l-1.678-1.678-4.475 4.475 1.678 1.678a1.758 1.758 0 0 1-2.485 2.486l-1.678-1.678-6.708 6.708h43.744z"/></g></g></g><g><g><g><path fill="#444" d="M81.214 59.718v19.738c0 .971-.787 1.758-1.758 1.758H59.718a1.758 1.758 0 0 1-1.243-3l19.738-19.74a1.758 1.758 0 0 1 3 1.244zm-3.516 4.244L63.962 77.698h13.736z"/></g></g></g><g><g><g><path fill="#444" d="M81.805 28.085l-4.396 12.002c-.088.24-.227.458-.407.639l-13.48 13.48a1.758 1.758 0 0 1-2.486-2.486l12.272-12.273-5.121-5.12L36.07 66.442l5.121 5.12 11.231-11.23a1.758 1.758 0 0 1 2.486 2.486L40.084 77.643a7.115 7.115 0 0 1-5.046 2.086 7.113 7.113 0 0 1-5.047-2.087c-2.782-2.782-2.782-7.31 0-10.093l1.575-1.574a1.751 1.751 0 0 1-.101-.584V45c0-.97.787-1.758 1.758-1.758h14.062a1.758 1.758 0 0 1 0 3.516H34.98V62.56l26.068-26.068L40.254 15.7 14.456 41.497c-.33.33-.777.515-1.243.515H7.031v44.472h26.19a1.758 1.758 0 0 1 0 3.516H5.272c-.97 0-1.757-.787-1.757-1.758v-46.23H1.758A1.758 1.758 0 0 1 .515 39.01L39.01.515a1.758 1.758 0 0 1 2.486 0l20.039 20.039a1.758 1.758 0 0 1-2.486 2.486L40.254 4.244 6.002 38.496h6.483L39.011 11.97a1.758 1.758 0 0 1 2.486 0l22.037 22.037 3.374-3.374c.181-.181.4-.32.64-.408L79.55 25.83a1.758 1.758 0 0 1 2.254 2.255zm-48.22 40.843l-1.108 1.107a3.597 3.597 0 0 0-1.06 2.561c0 .967.376 1.876 1.06 2.56a3.597 3.597 0 0 0 2.561 1.061c.967 0 1.877-.377 2.56-1.06l1.107-1.108zM77.2 30.434l-5.808 2.126 3.68 3.68z"/></g></g></g><g><g><g><path fill="#444" d="M59.18 56.055a1.77 1.77 0 0 0-1.242-.515c-.463 0-.916.188-1.243.515-.327.329-.515.78-.515 1.243 0 .464.188.916.515 1.244.327.327.779.514 1.243.514.462 0 .916-.187 1.242-.514.327-.328.516-.782.516-1.244 0-.463-.188-.914-.516-1.243z"/></g></g></g><g><g><g><path fill="#444" d="M46.93 33.22a6.687 6.687 0 0 1-6.68 6.68 6.687 6.687 0 0 1-6.68-6.68 6.687 6.687 0 0 1 6.68-6.68 6.687 6.687 0 0 1 6.68 6.68zm-3.516 0a3.168 3.168 0 0 0-3.164-3.164 3.168 3.168 0 0 0-3.164 3.164 3.168 3.168 0 0 0 3.164 3.164 3.168 3.168 0 0 0 3.164-3.164z"/></g></g></g></g></g></svg>