<svg xmlns="http://www.w3.org/2000/svg" width="90" height="90" viewBox="0 0 90 90"><g><g><g/><g><g><g><g><path fill="#444" d="M85.5 40.5A4.5 4.5 0 0 1 90 45v3a4.5 4.5 0 0 1-4.5 4.5h-81A4.5 4.5 0 0 1 0 48v-3a4.5 4.5 0 0 1 4.5-4.5h.06A40.308 40.308 0 0 1 31.569 3.819 4.5 4.5 0 0 1 36 0h18a4.5 4.5 0 0 1 4.431 3.819A40.308 40.308 0 0 1 85.44 40.5zm-54-33.463A37.32 37.32 0 0 0 7.56 40.5h74.88A37.32 37.32 0 0 0 58.5 7.037V33a1.5 1.5 0 0 1-3 0V4.5A1.5 1.5 0 0 0 54 3h-7.5v33a1.5 1.5 0 0 1-3 0V3H36a1.5 1.5 0 0 0-1.5 1.5V33a1.5 1.5 0 0 1-3 0zM87 45a1.5 1.5 0 0 0-1.5-1.5h-81A1.5 1.5 0 0 0 3 45v3a1.5 1.5 0 0 0 1.5 1.5h81A1.5 1.5 0 0 0 87 48z"/></g><g><path fill="#444" d="M37.5 66H18a4.5 4.5 0 0 0-4.5 4.5v6a1.5 1.5 0 0 0 3 0v-6A1.5 1.5 0 0 1 18 69h19.5a1.5 1.5 0 0 0 0-3z"/></g><g><path fill="#444" d="M88.5 66a1.5 1.5 0 0 1 1.5 1.5v12a1.5 1.5 0 0 1-1.5 1.5h-6.12A10.5 10.5 0 0 1 72 90h-9a19.606 19.606 0 0 1-16.752-9.511 1.47 1.47 0 0 0-2.496 0A19.606 19.606 0 0 1 27 90h-9a10.514 10.514 0 0 1-10.05-7.5H1.5A1.5 1.5 0 0 1 0 81V69a1.5 1.5 0 0 1 1.5-1.5h6A7.509 7.509 0 0 1 15 60h60a7.513 7.513 0 0 1 7.35 6zm-81 9H3v4.5h4.5zm0-4.5H3V72h4.5zm72-3A4.5 4.5 0 0 0 75 63H15a4.5 4.5 0 0 0-4.5 4.5v12A7.509 7.509 0 0 0 18 87h9a16.596 16.596 0 0 0 14.172-8.05 4.469 4.469 0 0 1 7.65 0A16.596 16.596 0 0 0 63 87h9a7.509 7.509 0 0 0 7.5-7.5zm7.5 6h-4.5V78H87zm0-4.5h-4.5v1.5H87z"/></g><g><path fill="#444" d="M46.5 66h-3a1.5 1.5 0 0 0 0 3h3a1.5 1.5 0 0 0 0-3z"/></g></g></g></g></g></g></svg>