<svg xmlns="http://www.w3.org/2000/svg" width="90" height="90" viewBox="0 0 90 90"><g><g><g/><g><g><g><g><path fill="#444" d="M89.279 2.658L78.63 8.688v9.634h.853a1.42 1.42 0 1 1 0 2.842h-.853v4.018a3.7 3.7 0 0 1 2.274 3.41v8.303a1.42 1.42 0 1 1-2.842 0v-8.303a.853.853 0 0 0-.853-.853h-1.136a.854.854 0 0 0-.853.853v21.995h2.842v-9.145a1.42 1.42 0 1 1 2.842 0v19.74a3.699 3.699 0 0 1-2.853 3.593c-.224 6.245-5.372 11.256-11.67 11.256H58.49v5.688a3.696 3.696 0 0 1-3.536 3.686v.9A3.699 3.699 0 0 1 51.26 90h-7.39a3.699 3.699 0 0 1-3.694-3.695v-.892h-15.45a1.42 1.42 0 1 1 0-2.842h30.069c.47 0 .852-.382.852-.852V76.03h-5.264a5.029 5.029 0 0 1-4.815 3.6 5.027 5.027 0 0 1-5.02-5.02 5.027 5.027 0 0 1 5.02-5.022 5.03 5.03 0 0 1 4.815 3.6h5.264V41.647H44.242a1.42 1.42 0 1 1 0-2.842h11.405V25.34a.853.853 0 0 0-.852-.853h-51.1a.853.853 0 0 0-.853.853v13.466h36.663a1.42 1.42 0 1 1 0 2.842H2.842V81.72c0 .47.383.852.853.852h16.484a1.42 1.42 0 1 1 0 2.842h-1.866v.892A3.699 3.699 0 0 1 14.62 90h-7.39a3.699 3.699 0 0 1-3.694-3.695v-.9A3.696 3.696 0 0 1 0 81.72v-56.38a3.699 3.699 0 0 1 3.695-3.695h12.619v-2.13a3.699 3.699 0 0 1 3.695-3.694H38.48a3.699 3.699 0 0 1 3.695 3.695v2.129h12.619a3.7 3.7 0 0 1 3.695 3.695v47.85h7.892c4.733 0 8.609-3.74 8.829-8.42a3.698 3.698 0 0 1-2.832-3.588v-32.59a3.697 3.697 0 0 1 3.41-3.68v-3.746H73.95v1.042a3.699 3.699 0 0 1-3.694 3.694 3.699 3.699 0 0 1-3.695-3.694V17.28a3.699 3.699 0 0 1 3.695-3.694 3.699 3.699 0 0 1 3.694 3.694v1.043h1.84V7.859c0-.511.275-.984.72-1.236L87.878.185a1.421 1.421 0 1 1 1.4 2.473zM71.109 17.28a.854.854 0 0 0-1.706 0v4.927a.854.854 0 0 0 1.705 0zM6.376 86.306c0 .47.383.853.853.853h7.388c.47 0 .853-.383.853-.853v-.892H6.377zm32.957-65.48v-1.31a.854.854 0 0 0-.853-.853H20.01a.854.854 0 0 0-.853.853v1.31zm6.234 55.207a1.42 1.42 0 1 1 0-2.842h1.648c-.4-.464-.99-.758-1.648-.758a2.181 2.181 0 0 0-2.179 2.179c0 1.201.978 2.179 2.18 2.179.658 0 1.248-.295 1.647-.758zm6.544 10.273v-.892h-9.094v.892c0 .47.383.853.853.853h7.388c.47 0 .853-.383.853-.853zM75.221 53.43v7.752c0 .47.383.853.853.853h1.137c.47 0 .852-.383.852-.853V53.43z"/></g><g><path fill="#444" d="M43.481 36.712a5.027 5.027 0 0 1-5.021-5.021 5.027 5.027 0 0 1 5.021-5.021 5.027 5.027 0 0 1 5.021 5.021 5.027 5.027 0 0 1-5.021 5.021zm0-2.842a2.181 2.181 0 0 0 2.179-2.179 2.181 2.181 0 0 0-2.179-2.179 2.181 2.181 0 0 0-2.179 2.179c0 1.201.978 2.179 2.179 2.179z"/></g><g><path fill="#444" d="M29.141 26.67a5.027 5.027 0 0 1 5.021 5.021 5.027 5.027 0 0 1-5.021 5.021 5.027 5.027 0 0 1-5.021-5.021 5.027 5.027 0 0 1 5.021-5.021zm0 2.842a2.181 2.181 0 0 0-2.179 2.179c0 1.201.978 2.179 2.179 2.179a2.181 2.181 0 0 0 2.179-2.179 2.181 2.181 0 0 0-2.179-2.179z"/></g><g><path fill="#444" d="M14.811 26.67a5.027 5.027 0 0 1 5.021 5.021 5.027 5.027 0 0 1-5.021 5.021 5.027 5.027 0 0 1-5.021-5.021 5.027 5.027 0 0 1 5.021-5.021zm0 2.842a2.181 2.181 0 0 0-2.179 2.179c0 1.201.978 2.179 2.179 2.179a2.181 2.181 0 0 0 2.179-2.179 2.181 2.181 0 0 0-2.179-2.179z"/></g><g><path fill="#444" d="M11.651 51.372h21.948a1.42 1.42 0 1 0 0-2.842H11.65a1.42 1.42 0 1 0 0 2.842z"/></g><g><path fill="#444" d="M11.651 57.382h21.948a1.42 1.42 0 1 0 0-2.842H11.65a1.42 1.42 0 1 0 0 2.842z"/></g><g><path fill="#444" d="M11.651 63.392h21.948a1.42 1.42 0 1 0 0-2.842H11.65a1.42 1.42 0 1 0 0 2.842z"/></g><g><path fill="#444" d="M11.651 69.402h21.948a1.42 1.42 0 1 0 0-2.842H11.65a1.42 1.42 0 1 0 0 2.842z"/></g><g><path fill="#444" d="M11.651 75.412h21.948a1.42 1.42 0 1 0 0-2.842H11.65a1.42 1.42 0 1 0 0 2.842z"/></g><g><path fill="#444" d="M43.011 66.402h5.116a1.42 1.42 0 1 0 0-2.842H43.01a1.42 1.42 0 1 0 0 2.842z"/></g><g><path fill="#444" d="M48.127 57.55H43.01a1.42 1.42 0 1 0 0 2.842h5.116a1.42 1.42 0 1 0 0-2.842z"/></g><g><path fill="#444" d="M48.127 51.54H43.01a1.42 1.42 0 1 0 0 2.842h5.116a1.42 1.42 0 1 0 0-2.842z"/></g></g></g></g></g></g></svg>