<svg xmlns="http://www.w3.org/2000/svg" width="84" height="90" viewBox="0 0 84 90"><g><g><g/><g><g><g><g><path fill="#444" d="M72 76.5a6 6 0 1 1-6-6 6.007 6.007 0 0 1 6 6zm-3 0a3 3 0 1 0-6 0 3 3 0 0 0 6 0z"/></g><g><path fill="#444" d="M72.375 0C78.759-.026 83.959 5.12 84 11.505V69.84a8.161 8.161 0 0 1-4.531 7.267c-.311 7.038-5.986 12.651-13.027 12.885-7.041.234-13.076-4.99-13.854-11.992H25l-3.633 8.718a5.25 5.25 0 0 1-9.734 0l-3.638-8.73A8.206 8.206 0 0 1 0 69.84V11.505C.04 5.121 5.24-.025 11.625 0zM3 48h10.5v-3H3zm10.522 3H10.5v16.08A1.872 1.872 0 0 0 12.315 69H16.5V53.97A3.24 3.24 0 0 1 13.522 51zm8.228 27h-10.5l3.151 7.564a2.251 2.251 0 0 0 4.197 0zm30.838-3c.117-1.024.352-2.03.7-3H12.314A4.874 4.874 0 0 1 7.5 67.08V51H3v18.84A5.211 5.211 0 0 0 8.25 75zM19.5 48v-3h-3v5.785c0 .102.123.215.3.215h23.4c.177 0 .3-.113.3-.215V45h-3v3a1.5 1.5 0 0 1-3 0v-3H30v3a1.5 1.5 0 0 1-3 0v-3h-4.5v3a1.5 1.5 0 0 1-3 0zM27 36v-3h-7.5v9h18v-9H30v3a1.5 1.5 0 0 1-3 0zm37.5 18a4.504 4.504 0 0 1 4.5 4.5v4.848c1.203.27 2.363.706 3.447 1.295A10.024 10.024 0 0 0 73.5 60.15V51H43.477a3.259 3.259 0 0 1-3.278 3H36v15h7.5V58.5A4.505 4.505 0 0 1 48 54zm-15 4.5a1.5 1.5 0 1 0-3 0V69h3zM33 63v-3h-4.5v3zm-4.5 3v3H33v-3zm4.5-9v-3h-4.5v3zm-13.5-3v15h6V54zm35.283 15A13.497 13.497 0 0 1 66 63v-4.5a1.502 1.502 0 0 0-1.5-1.5H52.224c.177.48.27.988.276 1.5V69zM76.5 76.5A10.5 10.5 0 1 0 66 87c5.796-.007 10.493-4.704 10.5-10.5zm4.5-6.66V51h-4.5v9.15a12.965 12.965 0 0 1-1.603 6.223 13.494 13.494 0 0 1 4.307 7.329A5.12 5.12 0 0 0 81 69.84zM81 48v-3H43.5v3zm0-6V27H3v15h13.5v-9a3.003 3.003 0 0 1 3-3h18a3.003 3.003 0 0 1 3 3v9zM67.5 16.5h-51a6.007 6.007 0 0 0-6 6V24h63v-1.5a6.007 6.007 0 0 0-6-6zm-30-3a3.003 3.003 0 0 0-3-3h-9a3.003 3.003 0 0 0-3 3zM81 11.505A8.575 8.575 0 0 0 72.375 3h-60.75A8.575 8.575 0 0 0 3 11.505V24h4.5v-1.5a9.01 9.01 0 0 1 9-9h3a6.007 6.007 0 0 1 6-6h9a6.007 6.007 0 0 1 6 6h27a9.01 9.01 0 0 1 9 9V24H81z"/></g><g><path fill="#444" d="M46.5 39a3.003 3.003 0 0 1-3-3v-3a3.003 3.003 0 0 1 3-3H54a3.003 3.003 0 0 1 3 3v3a3.003 3.003 0 0 1-3 3zm0-3h7.502L54 33h-7.5z"/></g></g></g></g></g></g></svg>