<svg xmlns="http://www.w3.org/2000/svg" width="90" height="68" viewBox="0 0 90 68"><g><g><g><path fill="#444" d="M87.448 3.557a7.606 7.606 0 0 1 1.529 9.492L68.741 46.993a10.795 10.795 0 0 1 4.288-.885c5.988 0 10.86 4.872 10.86 10.86 0 5.987-4.872 10.859-10.86 10.859a10.833 10.833 0 0 1-8.107-3.646H18.967a10.833 10.833 0 0 1-8.108 3.646C4.871 67.827 0 62.955 0 56.967c0-5.987 4.871-10.859 10.86-10.859 3.22 0 6.117 1.412 8.107 3.646h5.13v-2.99h-1.626a2.927 2.927 0 0 1-2.924-2.924v-7.173c0-6.33 5.149-11.478 11.478-11.478h6.273l.178-2.582a3.855 3.855 0 0 1 3.834-3.58H51.66a3.855 3.855 0 0 1 3.834 3.58l.178 2.582h6.5a3.573 3.573 0 0 1 3.569 3.569v4.277h8.251l12.713-21.324c1.174-2.018.754-4.622-1.005-6.179l-3.451-3.055A1.319 1.319 0 0 1 83.996.5zM39.942 25.189h13.085l-.166-2.4a1.21 1.21 0 0 0-1.202-1.124H41.31a1.21 1.21 0 0 0-1.203 1.123zm-8.577 18.937a.287.287 0 0 0 .287-.286v-1.096a2.928 2.928 0 0 1 2.924-2.924H62.17a.932.932 0 0 0 .931-.931V28.758a.932.932 0 0 0-.931-.932l-31.32.005c-4.794.093-8.667 4.02-8.667 8.836v7.172c0 .158.129.287.287.287zm3.21-1.668a.287.287 0 0 0-.286.286v1.095a2.927 2.927 0 0 1-2.923 2.924h-4.63v2.991h29.59v-7.296zm-15.494 14.51a8.33 8.33 0 0 0-.01-.395c-.001-.033-.004-.065-.006-.097a8.469 8.469 0 0 0-.077-.743l-.003-.025a8.174 8.174 0 0 0-1.308-3.33l-.008-.013a8.495 8.495 0 0 0-.207-.29l-.041-.055a8.214 8.214 0 0 0-6.562-3.274c-4.533 0-8.221 3.688-8.221 8.222 0 4.533 3.688 8.221 8.221 8.221a8.212 8.212 0 0 0 6.68-3.438 8.28 8.28 0 0 0 .353-.53c.006-.008.01-.018.016-.027.076-.127.15-.256.218-.387l.041-.08c.062-.12.122-.242.178-.366l.028-.062c.2-.45.36-.917.475-1.395l.002-.007a8.09 8.09 0 0 0 .1-.478c.011-.064.024-.128.034-.192l.004-.025c.017-.116.032-.233.045-.351l.008-.083c.01-.102.018-.205.024-.309l.006-.097c.006-.13.01-.262.01-.395zm1.63 4.576h42.466a10.661 10.661 0 0 1-.591-1.587H33.87a1.319 1.319 0 0 1 0-2.637h28.31c-.005-.117-.01-.234-.01-.352 0-.193.006-.384.016-.574.005-.104.015-.206.023-.309.007-.083.012-.166.02-.248.014-.137.033-.273.052-.41.007-.044.012-.089.018-.133.024-.156.053-.31.084-.465l.012-.063c.034-.167.073-.334.115-.5l.004-.014c.164-.64.383-1.262.663-1.86H20.71c.28.598.499 1.22.663 1.858l.005.02c.042.164.08.329.115.496l.012.065c.03.153.059.307.083.463l.018.135c.02.136.038.27.052.407.009.083.014.166.02.25.009.102.019.204.024.308.01.19.015.381.015.573 0 .119-.005.235-.009.353h2.792a1.319 1.319 0 1 1 0 2.637h-3.199a10.642 10.642 0 0 1-.59 1.587zm45.753-9.518l-.034.045a8.182 8.182 0 0 0-1.574 4.014l-.008.082c-.01.102-.018.205-.024.309l-.006.097a8.195 8.195 0 0 0 0 .79l.006.096c.006.104.014.207.024.31l.008.081c.013.119.027.236.045.354l.003.021c.01.067.024.133.036.2.028.155.06.31.097.464l.004.018a8.184 8.184 0 0 0 .679 1.817l.043.084c.068.129.14.255.214.38l.02.034c.076.126.157.25.24.371.037.055.076.108.115.162a8.212 8.212 0 0 0 6.678 3.434c4.533 0 8.221-3.688 8.221-8.222 0-4.533-3.688-8.221-8.222-8.221a8.212 8.212 0 0 0-6.565 3.28zm5.955-16.354h-6.68v3.217a3.573 3.573 0 0 1-3.568 3.569h-3.207v7.296h5.06z"/></g></g></g></svg>