<svg xmlns="http://www.w3.org/2000/svg" width="47" height="47" viewBox="0 0 47 47"><g><g><g/><g><path fill="#f30" d="M7.758 32.484l-4.512 3.322-.686-1.142 3.629-2.7-1.373-2.18-3.63 2.7L.5 31.342l4.512-3.323zm-.98 6.437c-.197-.52-.295-1.038-.197-1.558.098-.519.294-1.038.589-1.453a2.698 2.698 0 0 1 1.176-.935c.49-.207.981-.311 1.472-.207.49.104.98.311 1.47.727.393.311.786.726.982 1.245.196.52.294 1.039.196 1.558-.098.519-.294 1.038-.589 1.453a2.698 2.698 0 0 1-1.177.935c-.49.207-.98.311-1.47.207-.491 0-.982-.207-1.472-.623a3.356 3.356 0 0 1-.98-1.35zm2.55.83c.294.104.588 0 .882-.104.196-.103.49-.31.687-.622.196-.312.392-.623.392-.935.098-.311 0-.623-.098-.934-.098-.312-.294-.52-.589-.727-.294-.208-.588-.415-.882-.415-.295-.104-.589 0-.883.103-.196.104-.49.312-.687.623-.196.312-.392.623-.392.935 0 .311 0 .623.098.934.098.312.294.52.589.727.294.208.49.415.882.415zm9.415 4.569l-.687 2.18-1.078-.415.294-1.142-3.727-1.142-.295 1.142-1.078-.416.686-2.18.196.104c.295.104.589-.104.883-.52.294-.415.589-1.038.883-1.972l.588-1.765 4.022 1.35-1.275 4.464zm-3.04-3.842c-.197.623-.393 1.142-.687 1.661-.196.416-.392.727-.687.83l2.354.728.981-3.427-1.667-.623zm9.513 3.945h-2.55l-.49 1.246H20.9l2.354-5.814h1.275l2.55 5.814h-1.373zm-.392-1.038l-.883-2.18-.882 2.284zm5.59-4.88c.491-.207.883-.207 1.276-.207.392 0 .686.207.98.415.295.208.491.52.59.934.097.416.195.831.097 1.143-.098.415-.294.726-.588.934-.295.311-.687.52-1.08.623l-1.078.415.49 1.558-1.177.519-1.765-5.503zm.883 3.011c.393-.103.589-.311.785-.519.098-.207.196-.519.098-.83a1.05 1.05 0 0 0-.49-.623c-.196-.104-.589-.104-.883 0l-.98.311.588 1.869zm8.043-1.66c-.392.415-.883.622-1.373.726-.49.104-.98.104-1.471-.104-.49-.208-.883-.519-1.275-.934a2.11 2.11 0 0 1-.589-1.454c-.098-.519 0-1.038.196-1.557.196-.52.49-.935.981-1.35.392-.415.883-.623 1.373-.727.49-.104.981-.104 1.471.104.49.208.883.52 1.276.935.392.415.588.934.588 1.453.098.52 0 1.038-.196 1.558a6.64 6.64 0 0 1-.98 1.35zm-.687-.935c.295-.208.393-.52.49-.83.099-.312.099-.624.099-.935-.098-.312-.196-.623-.392-.935a1.536 1.536 0 0 0-.785-.623c-.294-.103-.588-.103-.883-.103-.294.103-.588.207-.784.415-.295.207-.393.519-.49.83-.099.312-.099.623-.099.935.098.311.196.623.393.934.196.312.49.52.784.623.294.104.589.104.883.104.196 0 .49-.104.785-.415zm3.924-6.23l1.765 1.35-.686 1.142-4.512-3.322.588-1.142 1.864 1.35.49-.831-.98-2.596.784-1.142 1.177 3.219 3.433.103-.785 1.246-2.648-.104z"/></g><g/><g><path fill="#f30" d="M8.5 10.5l14.95 7.314L38.5 10.5v15.686L23.45 33.5 8.5 26.186z"/></g><g><path fill="#8a1c00" d="M8.5 11.5v4.721L23.45 23.5l15.05-7.279V11.5l-15.05 7.377z"/></g><g><path fill="#ca2a02" d="M23.5 33.5V17.479L9.487 10.5H8.5v15.53z"/></g><g><path fill="#8a1c00" d="M8.5 11.5v4.721l15 7.279v-4.623z"/></g><g><path fill="#f30" d="M7.5 9.46L23.45 1.5 39.5 9.46v.982L23.45 18.5 7.5 10.54z"/></g><g><path fill="#f1f1f2" d="M33.5 5.447c0 2.527-3.505 5.053-10.103 5.053S13.5 8.5 13.5 5.447c0-1.684 1.443-2.947 3.505-2.947 3.093 0 5.361 3.053 6.495 4.947C24.634 5.553 26.799 2.5 29.995 2.5c1.34 0 2.577.526 3.093 1.579.206.421.309.947.412 1.368zM20.82 8.29c-.619-1.263-1.753-3.157-3.196-3.157-.619 0-1.031.42-1.031.842 0 .42.31.947 1.03 1.473.62.316 1.547.842 3.197.842zm9.484-2.21c0-.526-.412-.842-1.03-.842-1.444 0-2.578 1.895-3.197 3.158 1.65-.106 2.578-.527 3.196-.948.722-.526.928-1.158 1.031-1.368z"/></g><g><path fill="#f30" d="M7.5 9.5l15.95 7.879L39.5 9.5v5.22L23.45 22.5 7.5 14.72z"/></g><g><path fill="#f1f1f2" d="M29.5 15.5v-.608l-6.05-3.341-5.95 3.341v.608l-4-1.823v-.81L23.254 7.5l.197.101.197-.101 9.852 5.367v.81z"/></g><g><path fill="#dbdbdc" d="M29.5 14.9v15.601l4-1.868V12.87z"/></g><g><path fill="#dbdbdc" d="M13.5 28.631l4 1.868V14.89l-4-1.999z"/></g></g></g></svg>