<svg xmlns="http://www.w3.org/2000/svg" width="34" height="44" viewBox="0 0 34 44"><g><g><g><path fill="#e8430c" d="M17.385 2c8.506 0 15.384 6.878 15.384 15.385C32.77 35.363 18.621 42 17.385 42 16.148 42 2 35.364 2 17.385 2 8.878 8.878 2 17.385 2z"/><path fill="none" stroke="#fff" stroke-miterlimit="50" stroke-width="2.4" d="M17.385 2c8.506 0 15.384 6.878 15.384 15.385C32.77 35.363 18.621 42 17.385 42 16.148 42 2 35.364 2 17.385 2 8.878 8.878 2 17.385 2z"/></g><g><path fill="#fff" d="M17.38 28.33c6.048 0 10.95-4.902 10.95-10.95 0-6.047-4.902-10.95-10.95-10.95-6.047 0-10.95 4.903-10.95 10.95 0 6.048 4.903 10.95 10.95 10.95z"/></g><g><path fill="#fff" d="M17.384 5.68c3.228 0 6.154 1.297 8.266 3.409a11.649 11.649 0 0 1 3.408 8.265c0 3.228-1.297 6.154-3.408 8.266a11.649 11.649 0 0 1-8.266 3.408c-3.228 0-6.154-1.267-8.265-3.378a11.649 11.649 0 0 1-3.409-8.266c0-3.227 1.297-6.153 3.409-8.265a11.675 11.675 0 0 1 8.265-3.439zM6.434 17.384c0 6.034 4.887 10.95 10.95 10.95 6.064 0 10.95-4.916 10.95-10.98 0-6.033-4.886-10.95-10.95-10.95-6.063 0-10.95 4.917-10.95 10.98z"/></g><g><path fill="#009fe4" d="M11.287 8.24v18.22a10.854 10.854 0 0 1-4.857-9.08c0-3.8 1.93-7.149 4.857-9.14z"/></g><g><path fill="#ffe000" d="M23.42 26.52V8.21c2.986 1.96 4.917 5.34 4.917 9.17 0 3.832-1.93 7.18-4.917 9.14z"/></g><g><path fill="#5f8f21" d="M22.849 7.848v19.005c-1.539.875-3.319 1.417-5.189 1.448V6.37c1.87.09 3.65.603 5.189 1.478z"/></g><g><path fill="#a8c828" d="M17.079 6.4v21.93c-1.9-.06-3.65-.573-5.189-1.478V7.908A10.74 10.74 0 0 1 17.079 6.4z"/></g></g></g></svg>