<svg xmlns="http://www.w3.org/2000/svg" width="46" height="60" viewBox="0 0 46 60"><g><g><g><path fill="#444" d="M45.161 15.24v41.803A2.966 2.966 0 0 1 42.193 60H2.969A2.966 2.966 0 0 1 0 57.043V2.957A2.966 2.966 0 0 1 2.969 0h26.894c.389 0 .74.157.995.41l.002.001 13.888 13.836c.26.259.4.602.41.953.002.013.003.027.003.04zM31.273 4.798v8.446c0 .327.267.593.595.593h8.479zm11.068 52.246V16.646H31.868a3.413 3.413 0 0 1-3.415-3.403V2.81H2.969a.148.148 0 0 0-.149.147v54.086c0 .081.067.147.149.147h39.224a.148.148 0 0 0 .148-.147z"/></g><g><g/><g><g><path fill="#444" d="M23 52c-4.007 0-7.774-1.56-10.607-4.393A14.902 14.902 0 0 1 8 37c0-4.007 1.56-7.774 4.393-10.607A14.902 14.902 0 0 1 23 22a14.988 14.988 0 0 1 12.969 7.458.446.446 0 1 1-.77.449 14.194 14.194 0 0 0-5.064-5.082A14.097 14.097 0 0 0 23 22.891a14.017 14.017 0 0 0-9.977 4.132A14.017 14.017 0 0 0 8.891 37c0 3.769 1.468 7.312 4.132 9.976A14.017 14.017 0 0 0 23 51.11c3.769 0 7.312-1.468 9.976-4.133A14.017 14.017 0 0 0 37.11 37c0-1.897-.37-3.737-1.1-5.47a.446.446 0 0 1 .822-.345A14.908 14.908 0 0 1 38 37c0 4.007-1.56 7.773-4.393 10.607A14.903 14.903 0 0 1 23 52z"/></g><g><path fill="#444" d="M23.005 48.75c-6.482 0-11.755-5.273-11.755-11.755 0-6.482 5.273-11.755 11.755-11.755 6.482 0 11.755 5.273 11.755 11.755 0 6.482-5.273 11.755-11.755 11.755zm0-22.619c-5.99 0-10.864 4.874-10.864 10.864 0 5.99 4.874 10.864 10.864 10.864 5.99 0 10.864-4.873 10.864-10.864 0-5.99-4.873-10.864-10.864-10.864z"/></g><g><path fill="#444" d="M19.151 46.033c-.9 0-1.634-.733-1.634-1.633v-.769h-.363c-.901 0-1.634-.733-1.634-1.634 0-.9.733-1.633 1.634-1.633h.363v-.476h-.363c-.901 0-1.634-.733-1.634-1.633 0-.901.733-1.634 1.634-1.634h.363v-1.41a.446.446 0 0 1 .891 0v1.855c0 .247-.199.446-.445.446h-.81a.743.743 0 0 0 0 1.485h.81c.246 0 .445.2.445.446v1.366c0 .246-.199.446-.445.446h-.81a.743.743 0 0 0 0 1.485h.81c.246 0 .445.2.445.445V44.4a.743.743 0 0 0 1.486 0v-1.215c0-.246.2-.445.445-.445h4.156a.743.743 0 0 0 0-1.485h-4.156a.446.446 0 0 1-.445-.446v-1.366c0-.246.2-.446.445-.446h4.734a4.929 4.929 0 0 0 4.923-4.923 4.929 4.929 0 0 0-4.923-4.923h-5.922a.743.743 0 0 0-.743.743v3.536a.446.446 0 0 1-.89 0v-3.536c0-.901.732-1.634 1.633-1.634h5.922a5.82 5.82 0 0 1 5.814 5.814 5.82 5.82 0 0 1-5.814 5.814h-4.288v.476h3.71c.9 0 1.634.733 1.634 1.633 0 .901-.733 1.634-1.634 1.634h-3.71v.769c0 .9-.733 1.633-1.634 1.633zm1.188-8.521a.446.446 0 0 1-.445-.446v-5.984c0-.246.2-.446.445-.446h4.734a3.442 3.442 0 0 1 3.438 3.438 3.442 3.442 0 0 1-3.438 3.438zm.446-.891h4.288a2.55 2.55 0 0 0 2.547-2.547 2.55 2.55 0 0 0-2.547-2.547h-4.288z"/></g></g></g></g></g></svg>