<svg xmlns="http://www.w3.org/2000/svg" width="57" height="58" viewBox="0 0 57 58"><g><g><g><path d="M53.318 20.567a2.812 2.812 0 0 1 2.812 2.812v30.938a2.812 2.812 0 0 1-2.813 2.813H2.694A2.812 2.812 0 0 1-.12 54.316V23.379a2.813 2.813 0 0 1 2.813-2.812h17.424l-.73-.73.663-.662a11.25 11.25 0 0 1 15.91 0l.663.663-.73.729zm-31.246-.698l1.334 1.335a7.5 7.5 0 0 1 9.198 0l1.334-1.335a9.306 9.306 0 0 0-5.933-2.115 9.306 9.306 0 0 0-5.933 2.115zm32.183 3.51a.938.938 0 0 0-.937-.937h-19.3l-1.372 1.372-.663-.661a5.66 5.66 0 0 0-.866-.711h-6.224c-.31.208-.6.445-.865.71l-.663.662-1.373-1.372h-19.3a.937.937 0 0 0-.937.937v30.938a.937.937 0 0 0 .938.938h50.625a.938.938 0 0 0 .937-.938z"/></g><g><path d="M30.652 29.772a3.75 3.75 0 1 1-5.304-5.304 3.75 3.75 0 0 1 5.304 5.304zm-1.326-1.326a1.875 1.875 0 1 0-2.652-2.652 1.875 1.875 0 0 0 2.652 2.652z"/></g><g><path d="M14.744 13.862a18.75 18.75 0 0 1 26.516 0l.663.662-3.978 3.978-.663-.663a13.125 13.125 0 0 0-18.562 0l-.662.664-3.978-3.978.663-.662zm24.507.681a16.875 16.875 0 0 0-22.5 0l1.326 1.328a15 15 0 0 1 19.847 0z"/></g><g><path d="M12.747 13.2L8.77 9.221l.663-.663a26.25 26.25 0 0 1 37.125 0l.662.664-3.977 3.977-.663-.663a20.625 20.625 0 0 0-29.17 0zm-1.314-3.965l1.327 1.327a22.5 22.5 0 0 1 30.469 0l1.326-1.327a24.204 24.204 0 0 0-16.56-6.488 24.204 24.204 0 0 0-16.562 6.488z"/></g><g><path d="M17.69 37.443a2.812 2.812 0 0 1-2.812 2.812H9.253a2.813 2.813 0 0 1-2.813-2.813v-3.75a2.813 2.813 0 0 1 2.813-2.812h5.625a2.812 2.812 0 0 1 2.812 2.813zm-2.813.937a.937.937 0 0 0 .938-.938v-.937h-2.813V34.63h2.813v-.938a.937.937 0 0 0-.938-.937H9.252a.937.937 0 0 0-.937.938v.937h2.813v1.875H8.314v.938a.937.937 0 0 0 .938.937z"/></g><g><path d="M41.13 24.31h11.25v5.625H41.13zm1.875 3.75h7.5v-1.875h-7.5z"/></g><g><path d="M50.874 48.067a2.813 2.813 0 1 1-3.19 4.577 2.813 2.813 0 1 1 0-4.163 2.812 2.812 0 0 1 3.19-.414zm-4.402 3.158a.937.937 0 1 0-1.326-1.325.937.937 0 0 0 1.326 1.325zm3.75 0a.937.937 0 1 0-1.326-1.325.937.937 0 0 0 1.326 1.325z"/></g><g><path d="M49.565 43.06H40.19v1.875h9.375z"/></g><g><path d="M38.315 43.06H28.94v1.875h9.375z"/></g><g><path d="M27.065 43.06H17.69v1.875h9.375z"/></g><g><path d="M15.815 43.06H6.44v1.875h9.375z"/></g><g><path d="M15.81 50.56H4.56v1.875h11.25z"/></g><g><path d="M27.065 50.56H17.69v1.875h9.375z"/></g></g></g></svg>