<svg xmlns="http://www.w3.org/2000/svg" width="64" height="60" viewBox="0 0 64 60"><g><g><g><path fill="#444" d="M48.935 25.372l.002.026V43.59c0 .52-.256 1.005-.677 1.283l-7.531 4.965a1.399 1.399 0 0 1-1.471.044 1.528 1.528 0 0 1-.748-1.327V31.245L16.549 18.177 4.266 26.274l20.591 12.253 9.985-6.582c.677-.447 1.571-.234 1.997.475.426.708.223 1.644-.454 2.09l-10.718 7.066a1.4 1.4 0 0 1-1.487.035L.732 27.658A1.528 1.528 0 0 1 0 26.375a1.535 1.535 0 0 1 .676-1.317l15.063-9.93.01-.007 7.522-4.959a.295.295 0 0 1 .01-.006L38.331.233A1.393 1.393 0 0 1 39.82.198l23.447 13.953c.442.264.72.75.732 1.284a1.534 1.534 0 0 1-.676 1.317l-10.719 7.066c-.677.446-1.57.233-1.997-.475-.426-.709-.223-1.645.454-2.09l8.672-5.718-20.59-12.253L26.86 11.38l21.332 12.695c.055.032.108.07.16.11l.03.023c.038.032.075.065.11.101l.025.024c.04.043.08.089.116.138l.012.019c.024.033.048.066.07.102l.014.027.027.05c.02.039.038.078.055.118l.02.046c.02.055.04.11.054.167v.002c.017.06.028.121.036.183l.004.037c.006.05.01.1.01.151zm-2.894 17.38V28.144l-1.63 1.075c-.24.158-.507.233-.77.233-.482 0-.952-.25-1.227-.708-.426-.708-.223-1.644.454-2.09l1.802-1.189-20.59-12.253-4.751 3.132 21.344 12.702c.453.27.732.772.732 1.318v15.444z"/></g><g><path fill="#444" d="M61.785 20.253L51.067 27.32c-.677.446-.88 1.382-.454 2.09.275.459.745.71 1.227.71.263 0 .53-.076.77-.234l10.718-7.066c.677-.446.88-1.382.454-2.09-.426-.709-1.32-.922-1.997-.476z"/></g><g><path fill="#444" d="M34.842 38.01l-9.985 6.583L2.164 31.088c-.695-.413-1.58-.16-1.975.57-.395.727-.152 1.652.544 2.066L24.18 47.677a1.395 1.395 0 0 0 1.487-.035l10.718-7.066c.677-.446.88-1.382.454-2.09-.426-.71-1.32-.922-1.997-.476z"/></g><g><path fill="#444" d="M61.785 26.313L51.067 33.38c-.677.446-.88 1.382-.454 2.09.275.459.745.71 1.227.71.263 0 .53-.076.77-.234l10.718-7.066c.677-.446.88-1.382.454-2.09-.426-.71-1.32-.922-1.997-.476z"/></g><g><path fill="#444" d="M34.842 44.07l-9.985 6.583L2.164 37.148c-.695-.413-1.58-.16-1.975.569-.395.728-.152 1.653.544 2.067L24.18 53.737a1.395 1.395 0 0 0 1.487-.035l10.718-7.066c.677-.446.88-1.382.454-2.09-.426-.71-1.32-.922-1.997-.476z"/></g><g><path fill="#444" d="M61.785 32.373L51.067 39.44c-.677.446-.88 1.382-.454 2.09.275.458.745.71 1.227.71.263 0 .53-.076.77-.234l10.718-7.066c.677-.446.88-1.382.454-2.09-.426-.71-1.32-.922-1.997-.476z"/></g><g><path fill="#444" d="M34.842 50.13l-9.985 6.583L2.164 43.208c-.695-.413-1.58-.16-1.975.569-.395.728-.152 1.653.544 2.067L24.18 59.797a1.394 1.394 0 0 0 1.487-.035l10.718-7.066c.677-.446.88-1.382.454-2.09-.426-.71-1.32-.922-1.997-.476z"/></g></g></g></svg>