<?xml version="1.0" encoding="utf-8"?><svg xmlns="http://www.w3.org/2000/svg" xmlns:xlink="http://www.w3.org/1999/xlink"><symbol viewBox="0 0 30 30" id="basket" xmlns="http://www.w3.org/2000/svg"><path d="M12 27c0 1.65-1.35 3-3 3s-3-1.35-3-3 1.35-3 3-3 3 1.35 3 3zM4.95 0L6.3 3h22.2c.9 0 1.5.6 1.5 1.5 0 .3 0 .45-.3.75L24.3 15c-.45.9-1.35 1.5-2.55 1.5h-11.1L9.3 19.05v.15c0 .15.15.3.3.3H27v3H9c-1.65 0-3-1.35-3-3 0-.45.15-1.05.3-1.5l2.1-3.6L3 3H0V0zM27 27c0 1.65-1.35 3-3 3s-3-1.35-3-3 1.35-3 3-3 3 1.35 3 3z"/></symbol><symbol viewBox="0 0 19 19" id="basket-plus" xmlns="http://www.w3.org/2000/svg"><path d="M7.288 16.505c0 .982-.823 1.795-1.828 1.795-.994 0-1.816-.813-1.816-1.796a1.82 1.82 0 0 1 1.816-1.806c1.005 0 1.828.813 1.828 1.807zM9.412 3.473v2.022H7.356v1.57h2.056v2.02H11v-2.02h2.045v-1.57H11V3.472zM3.004.3l.823 1.795h13.467c.548 0 .914.362.914.904 0 .18 0 .271-.183.452L14.747 9.3c-.274.542-.823.903-1.542.903h-6.74l-.822 1.525v.09c0 .09.091.18.183.18h10.566v1.796H5.46c-.994 0-1.816-.801-1.816-1.795 0-.271.091-.633.183-.903l1.268-2.157-3.279-6.843H0V.3zm13.388 16.204c0 .983-.823 1.796-1.828 1.796a1.81 1.81 0 0 1-1.816-1.796c0-.993.81-1.806 1.816-1.806 1.005 0 1.828.813 1.828 1.807z"/></symbol><symbol viewBox="0 0 344.96 344.96" id="check" xmlns="http://www.w3.org/2000/svg"><g data-name="Слой 2"><path d="M321.85 86.24l-40-23.11-23.1-40H212.5L172.48 0l-40 23.11H86.24l-23.11 40-40 23.1v46.21L0 172.48l23.11 40v46.21l40 23.11 23.11 40h46.21l40 23.1 40-23.11h46.21l23.11-40 40-23.11V212.5l23.11-40-23.11-40V86.24zM156.91 243.07a16.79 16.79 0 0 1-23.34 0l-50.45-50.44a16.19 16.19 0 0 1 0-22.89l13.35-13.35a16.19 16.19 0 0 1 22.89 0l25.87 25.87 80.34-80.35a16.19 16.19 0 0 1 22.89 0l13.35 13.35a16.19 16.19 0 0 1 0 22.89z" data-name="Capa 1"/></g></symbol><symbol viewBox="0 0 30 30" id="compare" xmlns="http://www.w3.org/2000/svg"><path d="M4.518 23.54H3.232A3.236 3.236 0 0 0 0 26.773v2.353c0 .486.393.88.879.88h3.79a2.62 2.62 0 0 1-.15-.88zm6.28-4.71H9.513a3.236 3.236 0 0 0-3.233 3.233v7.06c0 .486.393.88.879.88h3.79a2.626 2.626 0 0 1-.15-.88zm19.03-10.001L23.55.356a.88.88 0 0 0-1.412 0l-6.276 8.473a.88.88 0 0 0 .706 1.402h2.26v18.89c0 .486.393.88.878.88h6.276a.879.879 0 0 0 .88-.88v-18.89h2.258a.88.88 0 0 0 .707-1.402z"/><path d="M17.068 14.12h-1.285a3.236 3.236 0 0 0-3.233 3.232V29.12c0 .486.394.88.879.88h3.79a2.626 2.626 0 0 1-.15-.88z"/></symbol><symbol viewBox="0 0 12 21" id="fb" xmlns="http://www.w3.org/2000/svg"><path d="M10.996.284L8.402.28c-2.914 0-4.797 1.932-4.797 4.922v2.27H.998a.408.408 0 0 0-.408.407v3.289c0 .225.183.407.408.407h2.607v8.297c0 .225.183.408.408.408h3.403a.408.408 0 0 0 .407-.408v-8.297h3.05a.408.408 0 0 0 .407-.408l.001-3.288a.409.409 0 0 0-.408-.408h-3.05V5.548c0-.925.22-1.394 1.425-1.394l1.747-.001a.408.408 0 0 0 .408-.408V.692a.408.408 0 0 0-.407-.408z"/></symbol><symbol viewBox="0 0 20 21" id="google" xmlns="http://www.w3.org/2000/svg"><path d="M10 8.28v4h5.658a6.012 6.012 0 0 1-5.658 4c-3.308 0-6-2.692-6-6s2.692-6 6-6c1.434 0 2.814.514 3.886 1.448l2.628-3.016A9.91 9.91 0 0 0 10 .28c-5.514 0-10 4.486-10 10s4.486 10 10 10 10-4.486 10-10v-2z"/></symbol><symbol viewBox="0 0 30 30" id="login" xmlns="http://www.w3.org/2000/svg"><path d="M7.705 27.656a1.172 1.172 0 0 1 0 2.344H3.556A3.537 3.537 0 0 1 .8 28.69a3.558 3.558 0 0 1-.724-2.984 15.289 15.289 0 0 1 5.246-8.656 15.227 15.227 0 0 1 4.911-2.7 7.962 7.962 0 0 1-3.202-6.38C7.031 3.575 10.606 0 15 0s7.969 3.575 7.969 7.969a7.962 7.962 0 0 1-3.197 6.378c.196.064.392.133.586.205a1.172 1.172 0 1 1-.824 2.195 12.838 12.838 0 0 0-4.233-.816 7.934 7.934 0 0 1-.6 0c-5.955.139-11.114 4.408-12.33 10.253-.076.365.014.74.248 1.027.135.166.437.445.937.445zm7.02-14.069a14.8 14.8 0 0 1 .549 0 5.632 5.632 0 0 0 5.351-5.618A5.631 5.631 0 0 0 15 2.344a5.631 5.631 0 0 0-5.625 5.625 5.632 5.632 0 0 0 5.35 5.618z"/><path d="M29.098 20.192a3.158 3.158 0 0 0-2.881-1.852h-3.663c-1.318 0-2.468.777-2.931 1.98-.062.161-.137.363-.215.598h-7.673c-.317 0-.62.128-.84.356L8.88 23.347a1.172 1.172 0 0 0 .005 1.638l2.05 2.087c.221.224.522.35.837.35h3.808a1.172 1.172 0 1 0 0-2.344h-3.317l-.904-.92.87-.896h8.057c.54 0 1.01-.369 1.138-.893a9.71 9.71 0 0 1 .386-1.207c.113-.295.398-.478.746-.478h3.657a.8.8 0 0 1 .745.465c.314.703.69 1.793.693 2.987.002 1.203-.373 2.317-.688 3.04a.8.8 0 0 1-.736.48h-3.7a.834.834 0 0 1-.755-.519 7.786 7.786 0 0 1-.364-1.16 1.172 1.172 0 0 0-2.279.546c.136.568.292 1.062.476 1.508a3.161 3.161 0 0 0 2.92 1.97h3.705a3.143 3.143 0 0 0 2.882-1.888c.405-.928.887-2.373.883-3.983-.004-1.604-.49-3.027-.897-3.938z"/><path d="M25.252 25.314a1.172 1.172 0 1 0 0-2.344 1.172 1.172 0 0 0 0 2.344z"/></symbol><symbol viewBox="0 0 14 18" id="mark" xmlns="http://www.w3.org/2000/svg"><path d="M13.518 6.519c0 4.46-5.834 11.01-6.082 11.286a.587.587 0 0 1-.874 0C6.314 17.53.48 10.98.48 6.52A6.526 6.526 0 0 1 6.999 0a6.526 6.526 0 0 1 6.519 6.519zm-3.24 0a3.284 3.284 0 0 0-3.28-3.28A3.284 3.284 0 0 0 3.72 6.52 3.284 3.284 0 0 0 7 9.799a3.283 3.283 0 0 0 3.28-3.28z"/></symbol><symbol viewBox="0 0 12 21" id="ok" xmlns="http://www.w3.org/2000/svg"><path d="M5.02 14.366c-1.55-.162-2.948-.544-4.145-1.48-.149-.117-.302-.229-.437-.359-.524-.503-.577-1.08-.163-1.673.355-.508.95-.644 1.57-.352.119.056.233.127.342.203 2.231 1.532 5.295 1.575 7.534.068.222-.17.46-.308.734-.38.534-.136 1.033.06 1.32.527.327.534.323 1.056-.08 1.47-.62.636-1.365 1.095-2.192 1.416-.782.304-1.64.456-2.487.558.128.139.188.207.268.288 1.152 1.157 2.308 2.31 3.456 3.47.391.395.473.886.258 1.346-.236.502-.763.833-1.28.798-.327-.023-.582-.186-.81-.414-.868-.875-1.754-1.733-2.605-2.624-.248-.26-.367-.21-.586.015-.874.9-1.763 1.786-2.656 2.667-.402.396-.88.467-1.345.241-.495-.24-.81-.745-.785-1.252.017-.344.185-.606.421-.841 1.14-1.138 2.276-2.28 3.413-3.42.076-.075.146-.155.255-.272z"/><path d="M5.958 10.403C3.192 10.393.924 8.101.94 5.33A5.07 5.07 0 0 1 6.02.28c2.799.008 5.045 2.297 5.031 5.127-.014 2.765-2.298 5.006-5.092 4.996zm2.514-5.066a2.465 2.465 0 0 0-2.473-2.472 2.469 2.469 0 0 0-2.48 2.502A2.465 2.465 0 0 0 6.012 7.82a2.46 2.46 0 0 0 2.46-2.483z"/></symbol><symbol viewBox="0 0 19 20" id="search" xmlns="http://www.w3.org/2000/svg"><path d="M18.691 18.217a1.067 1.067 0 0 1-.029 1.49 1.022 1.022 0 0 1-1.465-.03l-4.72-4.988a7.774 7.774 0 0 1-4.551 1.461c-4.381 0-7.946-3.622-7.946-8.075C-.02 3.623 3.545 0 7.926 0c4.38 0 7.945 3.623 7.945 8.075 0 1.906-.66 3.736-1.864 5.191zM2.053 8.075c0 3.291 2.634 5.969 5.873 5.969 3.238 0 5.873-2.678 5.873-5.969 0-3.291-2.635-5.968-5.873-5.968-3.239 0-5.873 2.677-5.873 5.968z"/></symbol><symbol viewBox="0 0 13 12" id="star" xmlns="http://www.w3.org/2000/svg"><path d="M6.592.285l1.601 3.747 4.1.348c.284.024.4.375.184.56l-3.11 2.663.932 3.962c.065.275-.237.492-.481.345l-3.523-2.1-3.523 2.1c-.245.146-.546-.07-.482-.345l.932-3.962-3.11-2.664a.319.319 0 0 1 .184-.56l4.1-.348 1.6-3.746a.324.324 0 0 1 .596 0z"/></symbol><symbol viewBox="0 0 30 30" id="tel" xmlns="http://www.w3.org/2000/svg"><path d="M29.213 23.142l-6.072-4.05a1.772 1.772 0 0 0-2.373.386l-1.77 2.274a.756.756 0 0 1-.969.205l-.336-.186c-1.115-.608-2.503-1.365-5.3-4.162-2.795-2.797-3.554-4.186-4.162-5.299l-.184-.336a.757.757 0 0 1 .2-.973l2.273-1.769c.727-.57.895-1.602.385-2.373L6.856.787A1.763 1.763 0 0 0 4.479.252L1.94 1.777a3.582 3.582 0 0 0-1.633 2.12C-.607 7.23.081 12.978 8.55 21.45c6.738 6.737 11.754 8.549 15.201 8.549.793.003 1.584-.1 2.35-.307a3.578 3.578 0 0 0 2.12-1.633l1.526-2.538a1.763 1.763 0 0 0-.534-2.378zM17 5a8.508 8.508 0 0 1 8.499 8.499.5.5 0 1 0 1 0A9.509 9.509 0 0 0 16.998 4a.5.5 0 1 0 0 1z"/><path d="M17 8a5.506 5.506 0 0 1 5.5 5.499.5.5 0 0 0 .999 0A6.506 6.506 0 0 0 16.999 7a.5.5 0 1 0 0 1z"/><path d="M17 11a2.503 2.503 0 0 1 2.5 2.5.5.5 0 0 0 1 0A3.503 3.503 0 0 0 17 10a.5.5 0 1 0 0 1z"/></symbol><symbol viewBox="0 0 20 12" id="vk" xmlns="http://www.w3.org/2000/svg"><path d="M19.894 10.601a1.38 1.38 0 0 0-.068-.13c-.347-.626-1.01-1.394-1.989-2.305l-.02-.021-.01-.01-.011-.01h-.01c-.445-.425-.726-.71-.844-.856-.216-.278-.264-.56-.146-.845.083-.216.396-.67.937-1.366.285-.369.51-.664.677-.887 1.2-1.599 1.722-2.62 1.562-3.066l-.062-.104c-.042-.062-.15-.12-.323-.172-.174-.052-.396-.06-.666-.026l-3 .02a.388.388 0 0 0-.208.006l-.135.032-.052.026-.042.031a.462.462 0 0 0-.114.11.714.714 0 0 0-.104.182 17.044 17.044 0 0 1-1.115 2.346c-.256.432-.492.805-.708 1.122a5.332 5.332 0 0 1-.541.698c-.146.15-.278.27-.396.36-.118.09-.208.129-.27.115a7.67 7.67 0 0 1-.178-.042.693.693 0 0 1-.234-.255 1.148 1.148 0 0 1-.12-.407 4.493 4.493 0 0 1-.036-.423 8.731 8.731 0 0 1 .005-.5c.007-.216.01-.362.01-.438 0-.265.006-.551.016-.86l.026-.736c.007-.18.01-.372.01-.574 0-.201-.012-.36-.036-.474a1.624 1.624 0 0 0-.109-.334.562.562 0 0 0-.213-.25 1.202 1.202 0 0 0-.35-.141C10.66.334 10.192.288 9.623.281 8.33.268 7.5.351 7.133.531a1.418 1.418 0 0 0-.396.314c-.125.153-.142.236-.052.25.417.062.712.212.885.448l.063.126c.049.09.097.25.146.48a4.8 4.8 0 0 1 .093.76 8.13 8.13 0 0 1 0 1.304c-.034.362-.067.643-.099.845a1.694 1.694 0 0 1-.265.72.18.18 0 0 1-.052.052.779.779 0 0 1-.281.052c-.098 0-.216-.049-.354-.146a2.499 2.499 0 0 1-.432-.402 5.367 5.367 0 0 1-.506-.714A12.472 12.472 0 0 1 5.3 3.535l-.166-.302a26.012 26.012 0 0 1-.427-.85c-.18-.372-.34-.732-.48-1.08A.687.687 0 0 0 3.979.97L3.926.938A.713.713 0 0 0 3.759.85a1.103 1.103 0 0 0-.24-.068L.668.802c-.292 0-.49.067-.594.199l-.042.062A.338.338 0 0 0 0 1.23c0 .077.02.17.063.282.416.98.869 1.926 1.358 2.837.49.91.915 1.644 1.276 2.2.36.556.729 1.081 1.104 1.575.375.494.623.81.744.949.122.14.217.243.287.313l.26.25c.167.167.411.367.734.6.323.233.68.462 1.073.688.392.226.848.41 1.37.553.52.142 1.026.2 1.52.172h1.197c.243-.02.427-.097.552-.23l.041-.052a.69.69 0 0 0 .078-.192 1.06 1.06 0 0 0 .037-.287 3.445 3.445 0 0 1 .067-.808c.052-.24.111-.42.178-.543a1.33 1.33 0 0 1 .4-.458.681.681 0 0 1 .084-.037c.166-.056.362-.002.588.162.226.163.438.365.636.605.197.24.435.509.713.808.278.299.52.521.729.667l.208.126c.139.083.32.16.542.23.221.069.416.086.583.051l2.665-.041c.264 0 .469-.044.615-.13.145-.088.232-.184.26-.288a.811.811 0 0 0 .005-.355 1.31 1.31 0 0 0-.073-.276z"/></symbol><symbol viewBox="0 0 10 21" id="ya" xmlns="http://www.w3.org/2000/svg"><path d="M9.197.28c.53 0 .9.36.9.875v18.3c0 .486-.34.825-.825.825H7.726a.81.81 0 0 1-.799-.8v-6.15h-.239l-3.28 6.415c-.15.34-.464.535-.866.535H.772a.865.865 0 0 1-.756-.42c-.159-.269-.154-.608.011-.907l3.499-6.332C1.614 11.53.572 9.615.572 7.155.572 2.405 3.477.28 6.356.28zm-2.27 2.85h-.646c-1.156 0-2.39.992-2.39 3.775 0 2.239.977 3.575 2.614 3.575h.422z"/></symbol></svg>