<svg xmlns="http://www.w3.org/2000/svg" width="24" height="24" viewBox="0 0 24 24"><g><g><path fill="#fff" d="M6.89 2.47c1.273 1 2 2.285 2.159 3.816.195 1.874-.541 3.613-1.123 4.407.125.851.152 1.79.015 2.797a.485.485 0 0 1-.55.408.476.476 0 0 1-.422-.53c.122-.904.113-1.8-.029-2.683-.385-.677-.83-.851-1.614-1.157-.749-.292-1.68-.655-2.884-1.601C-.268 5.797 0 .664.012.447A.474.474 0 0 1 .3.041a.505.505 0 0 1 .505.06c.913.691 1.662.803 2.529.933 1 .15 2.135.319 3.556 1.435zm-.051 4.868c.271.525.552 1.173.773 1.922.315-.741.577-1.772.462-2.88-.133-1.272-.74-2.34-1.804-3.177-1.214-.954-2.123-1.09-3.086-1.234-.695-.104-1.408-.21-2.196-.621.042 1.477.347 4.49 2.073 5.845 1.09.856 1.945 1.19 2.632 1.458.284.11.554.216.81.346a10.251 10.251 0 0 0-.526-1.206c-.69-1.346-1.472-2.134-1.48-2.142a.461.461 0 0 1 .011-.668.503.503 0 0 1 .693.01c.035.035.878.88 1.638 2.347zm-2.84-3.444c.23.14.298.432.153.652a.501.501 0 0 1-.676.147l-.02-.012a.463.463 0 0 1-.152-.652.5.5 0 0 1 .676-.147zm11.08 7.689c0 .973-.722 1.797-1.715 1.958a.485.485 0 0 1-.565-.388.475.475 0 0 1 .402-.544c.52-.085.898-.516.898-1.026 0-.573-.484-1.04-1.079-1.04-.53 0-.99.381-1.066.887a.488.488 0 0 1-.557.398.476.476 0 0 1-.413-.536c.147-.966 1.023-1.695 2.036-1.695 1.135 0 2.059.891 2.059 1.986zm-2.796 1.432a.5.5 0 0 1-.69-.002L11.58 13a.461.461 0 0 1 .015-.669.503.503 0 0 1 .692.013.463.463 0 0 1-.004.67zm-8.033.743c1.135 0 2.059.89 2.059 1.985 0 .973-.721 1.797-1.715 1.958a.486.486 0 0 1-.565-.388.475.475 0 0 1 .402-.544c.52-.085.898-.516.898-1.026 0-.573-.484-1.04-1.079-1.04-.53 0-.99.381-1.066.887a.488.488 0 0 1-.557.399.476.476 0 0 1-.413-.537c.147-.966 1.023-1.694 2.036-1.694zm-1.424 2.734a.503.503 0 0 1 .691.013.463.463 0 0 1-.003.67.5.5 0 0 1-.691-.002l-.013-.012a.461.461 0 0 1 .016-.669zm16.856-1.833c.27.002.49.216.487.477a.48.48 0 0 1-.488.469h-.008a.483.483 0 0 1-.491-.473.48.48 0 0 1 .489-.473zm1.16.78a.502.502 0 0 1 .686.098 2.129 2.129 0 0 1-.217 2.833 2.292 2.292 0 0 1-1.594.636 2.29 2.29 0 0 1-1.595-.636 2.11 2.11 0 0 1-.243-2.798.502.502 0 0 1 .683-.11c.22.151.272.446.115.659a1.193 1.193 0 0 0 .138 1.58 1.31 1.31 0 0 0 1.803 0 1.203 1.203 0 0 0 .123-1.6.462.462 0 0 1 .101-.662zm-7.694 4.167c.262.063.422.32.357.573a.487.487 0 0 1-.57.35h-.003a.474.474 0 0 1-.384-.557.489.489 0 0 1 .59-.369zm4.703 1.646a.496.496 0 0 1-.4.201c-.916 0-1.773.364-2.681.75-.915.388-1.861.79-3.002.907a6.918 6.918 0 0 1-.708.036c-1.78 0-3.692-.64-4.652-1.563-1.158.673-1.755 1.375-1.767 1.39a.5.5 0 0 1-.69.073.461.461 0 0 1-.075-.665c.028-.034.693-.824 1.976-1.58.081-.049.167-.097.256-.146a5.73 5.73 0 0 1 1.031-1.741c.762-.882 2.161-1.934 4.503-1.934 4.598 0 6.029 3.198 6.27 3.84a.459.459 0 0 1-.06.432zm-3.476.085c.745-.317 1.51-.641 2.34-.771-.551-.967-1.956-2.64-5.073-2.64-1.56 0-2.814.526-3.724 1.564-.158.18-.291.36-.404.532 1.084-.39 2.448-.67 4.067-.594a.48.48 0 0 1 .465.495.484.484 0 0 1-.513.45c-1.712-.08-3.114.272-4.197.742.909.684 2.694 1.224 4.327 1.055.99-.102 1.865-.474 2.712-.833zm9.124-6.622a.483.483 0 0 1-.471.343.497.497 0 0 1-.38-.174c-.733-.869-1.438-1.137-2.255-1.446-.942-.358-2.01-.764-3.142-2.154-1.015-1.246-1.431-2.652-1.239-4.18.236-1.87 1.35-3.41 2.099-4.062.072-.857.26-1.778.623-2.732a.495.495 0 0 1 .628-.28c.255.089.385.36.292.606a9.117 9.117 0 0 0-.579 2.636c.223.733.617.996 1.308 1.458.664.443 1.49.995 2.449 2.173 2.158 2.65.729 7.602.667 7.812zm-1.438-7.228c-.868-1.066-1.627-1.573-2.236-1.98a8.884 8.884 0 0 1-.706-.505c.255 2.184 1.174 3.663 1.189 3.686a.463.463 0 0 1-.162.65.501.501 0 0 1-.674-.155c-.027-.042-.657-1.045-1.064-2.637a10.767 10.767 0 0 1-.316-2.04c-.477.657-.967 1.608-1.106 2.712-.16 1.27.188 2.44 1.036 3.482.967 1.188 1.823 1.513 2.73 1.858.654.248 1.326.503 2 1.07.296-1.45.684-4.453-.69-6.141zm-.958 2.366a.461.461 0 0 1 0 .669.498.498 0 0 1-.347.139.498.498 0 0 1-.346-.138l-.016-.016a.461.461 0 0 1-.001-.668.503.503 0 0 1 .693-.001z"/></g></g></svg>