<svg xmlns="http://www.w3.org/2000/svg" width="60" height="60" viewBox="0 0 60 60"><g><g><g><path fill="#f30" d="M1.442 21.689A1.628 1.628 0 0 1 0 20.073V16.23c0-.824.618-1.519 1.442-1.615l2.368-.27a14 14 0 0 1 1.34-3.393L3.668 9.08a1.625 1.625 0 0 1 .122-2.162L6.507 4.2a1.632 1.632 0 0 1 2.163-.123l1.77 1.403a14.265 14.265 0 0 1 3.624-1.531l.257-2.208A1.628 1.628 0 0 1 15.937.3h3.843c.823 0 1.518.618 1.615 1.442l.258 2.208c1.242.334 2.426.83 3.533 1.48l1.706-1.352a1.625 1.625 0 0 1 2.163.123l2.71 2.71c.579.585.637 1.512.122 2.162l-1.39 1.757a14.275 14.275 0 0 1 1.364 3.36l2.259.264a1.628 1.628 0 0 1 1.442 1.615v3.843c0 .824-.618 1.52-1.442 1.616l-2.291.264a14.186 14.186 0 0 1-1.423 3.398l1.487 1.886c.515.65.463 1.577-.122 2.163l-2.717 2.716a1.632 1.632 0 0 1-2.162.122l-1.912-1.512a14.525 14.525 0 0 1-3.456 1.396l-.283 2.453a1.628 1.628 0 0 1-1.616 1.441h-3.843a1.628 1.628 0 0 1-1.615-1.441l-.296-2.543a14.354 14.354 0 0 1-3.225-1.364L8.67 32.07a1.625 1.625 0 0 1-2.163-.123l-2.716-2.716a1.632 1.632 0 0 1-.122-2.162l1.577-1.99a14.607 14.607 0 0 1-1.307-3.102zm10.066-3.753a6.362 6.362 0 0 0 6.353 6.353 6.362 6.362 0 0 0 6.353-6.353 6.362 6.362 0 0 0-6.353-6.353 6.362 6.362 0 0 0-6.353 6.353z"/></g><g><path fill="#f30" d="M55.851 22.927a1.6 1.6 0 0 1 .29 2.124l-.882 1.326a11.69 11.69 0 0 1 1.346 2.652l1.615.051c.818.026 1.48.663 1.552 1.474l.225 2.645a1.619 1.619 0 0 1-1.287 1.712l-1.61.329a11.59 11.59 0 0 1-.927 2.87l1.178 1.249c.56.592.586 1.512.058 2.137l-1.712 2.027a1.608 1.608 0 0 1-2.118.302l-1.461-.965a11.897 11.897 0 0 1-2.723 1.377l-.058 1.777a1.612 1.612 0 0 1-1.474 1.55l-2.646.226a1.619 1.619 0 0 1-1.712-1.287l-.367-1.815c-.94-.18-1.854-.483-2.723-.888l-1.326 1.242a1.604 1.604 0 0 1-2.138.058l-2.027-1.712a1.608 1.608 0 0 1-.303-2.118l1.01-1.525a11.816 11.816 0 0 1-1.28-2.446l-1.81-.058a1.612 1.612 0 0 1-1.55-1.473l-.226-2.646a1.619 1.619 0 0 1 1.288-1.712l1.673-.341c.168-.985.457-1.944.863-2.858l-1.172-1.248a1.603 1.603 0 0 1-.058-2.137l1.713-2.04a1.609 1.609 0 0 1 2.118-.303l1.339.888a11.61 11.61 0 0 1 2.851-1.5l.052-1.57a1.612 1.612 0 0 1 1.474-1.55l2.646-.226a1.619 1.619 0 0 1 1.712 1.287l.315 1.545c1.037.187 2.041.508 2.987.965l1.12-1.049a1.604 1.604 0 0 1 2.138-.058zm-5.227 9.674a5.201 5.201 0 0 0-10.364.875 5.201 5.201 0 0 0 10.364-.875z"/></g><g><path fill="#f30" d="M14.308 45.222a9.42 9.42 0 0 1 .92-2.253l-.689-.888a1.607 1.607 0 0 1 .148-2.137l1.172-1.146a1.605 1.605 0 0 1 2.137-.096l.804.656a9.722 9.722 0 0 1 2.427-.99l.129-1.005a1.604 1.604 0 0 1 1.615-1.403l1.629.02c.817.006 1.5.63 1.583 1.441l.103 1.01c.824.232 1.61.573 2.343 1.018l.779-.599a1.607 1.607 0 0 1 2.137.148l1.14 1.165c.572.586.61 1.5.096 2.137l-.65.798c.386.708.682 1.467.881 2.252l1.043.136a1.604 1.604 0 0 1 1.403 1.615l-.02 1.628c-.006.818-.63 1.5-1.44 1.584l-1.07.109a9.331 9.331 0 0 1-.978 2.253l.69.894c.501.65.437 1.564-.149 2.137l-1.165 1.14c-.586.572-1.5.61-2.137.096l-.901-.727c-.734.399-1.506.701-2.317.9l-.148 1.172a1.604 1.604 0 0 1-1.616 1.403l-1.628-.02a1.608 1.608 0 0 1-1.584-1.441l-.129-1.236a9.405 9.405 0 0 1-2.136-.933l-.96.74a1.607 1.607 0 0 1-2.136-.148l-1.14-1.165a1.605 1.605 0 0 1-.096-2.137l.772-.952a9.287 9.287 0 0 1-.85-2.079l-1.197-.154a1.604 1.604 0 0 1-1.403-1.616l.02-1.628c.006-.818.63-1.5 1.441-1.583zm5.097 2.458a4.239 4.239 0 0 0 4.184 4.287 4.239 4.239 0 0 0 4.287-4.184 4.239 4.239 0 0 0-4.184-4.286 4.239 4.239 0 0 0-4.287 4.183z"/></g></g></g></svg>