<svg xmlns="http://www.w3.org/2000/svg" width="60" height="54" viewBox="0 0 60 54"><g><g><g><path fill="#f30" d="M57.71 8.1L20.963.321a2.898 2.898 0 0 0-3.425 2.23l-.698 4.486 42.4 8.972.698-4.486a2.898 2.898 0 0 0-2.228-3.425z"/></g><g><path fill="#f30" d="M42.888 19.24l14.757 3.123-2.592 12.248a2.897 2.897 0 0 1-3.425 2.229l-4.097-.867 1.094 3.94a2.925 2.925 0 0 1-2.03 3.59L10.063 53.64a2.925 2.925 0 0 1-3.59-2.03L.106 28.66a2.925 2.925 0 0 1 2.03-3.589l11.3-3.136 1.809-8.546 16.445 3.48 6.976-1.936a2.925 2.925 0 0 1 3.59 2.03zm3.587 9.388c-.136.64.277 1.273.917 1.41l4.27.903a1.192 1.192 0 0 0 1.409-.917l.903-4.27a1.192 1.192 0 0 0-.917-1.408l-4.27-.904a1.193 1.193 0 0 0-1.409.916zM2.772 27.362a.547.547 0 0 0-.376.664l1.246 4.487L41.21 22.088l-.945-3.402-.3-1.086a.551.551 0 0 0-.664-.375l-2.567.713-23.853 6.62zM44.91 35.42l-2.291-8.256L5.05 37.589l3.714 13.386a.552.552 0 0 0 .525.394.533.533 0 0 0 .139-.02l36.53-10.137a.525.525 0 0 0 .321-.256.53.53 0 0 0 .054-.408z"/></g><g><path fill="#f30" d="M15.33 41.46a1.192 1.192 0 0 0-1.463-.827L9.6 41.817a1.192 1.192 0 0 0-.827 1.464l1.184 4.266c.175.63.833 1.002 1.464.827l4.266-1.184a1.192 1.192 0 0 0 .828-1.464z"/></g></g></g></svg>