<svg xmlns="http://www.w3.org/2000/svg" width="60" height="42" viewBox="0 0 60 42"><g><g><path fill="#f30" d="M49.053 30.458a5.54 5.54 0 0 0-3.91 1.613c-1.05 1.05-1.637 2.42-1.637 3.885 0 1.466.575 2.835 1.638 3.885 1.063 1.039 2.443 1.613 3.91 1.613 3.005 0 5.448-2.468 5.448-5.498 0-3.03-2.443-5.498-5.449-5.498zm0 8.553c-1.686 0-3.103-1.393-3.103-3.055 0-1.661 1.417-3.054 3.103-3.054 1.662 0 3.006 1.368 3.006 3.054 0 1.686-1.344 3.055-3.006 3.055zm1.417-26.867a1.187 1.187 0 0 0-.818-.317h-6.268c-.672 0-1.222.55-1.222 1.221v10.019c0 .672.55 1.221 1.222 1.221h9.945c.672 0 1.222-.55 1.222-1.221v-6.708c0-.342-.147-.672-.403-.904zm1.638 9.701h-7.502v-7.587h4.57l2.931 2.639zm-32.89 8.613a5.54 5.54 0 0 0-3.91 1.613c-1.05 1.05-1.637 2.42-1.637 3.885 0 1.466.575 2.835 1.637 3.885 1.063 1.039 2.444 1.613 3.91 1.613 3.006 0 5.45-2.468 5.45-5.498 0-3.03-2.444-5.498-5.45-5.498zm0 8.553c-1.686 0-3.103-1.393-3.103-3.055 0-1.661 1.417-3.054 3.103-3.054 1.662 0 3.006 1.368 3.006 3.054 0 1.686-1.344 3.055-3.006 3.055zM8.613 31.96v-3.25c0-.672-.55-1.222-1.221-1.222-.672 0-1.222.55-1.222 1.222v4.472c0 .672.55 1.222 1.222 1.222h3.677c.672 0 1.222-.55 1.222-1.222 0-.672-.55-1.222-1.222-1.222zm8.65-6.658c0-.672-.55-1.222-1.222-1.222H1.221C.55 24.08 0 24.63 0 25.303c0 .672.55 1.221 1.222 1.221h14.82c.671 0 1.221-.537 1.221-1.221zm1.259-4.325c.672 0 1.221-.538 1.234-1.21a1.21 1.21 0 0 0-1.21-1.234l-14.82-.085h-.012c-.672 0-1.222.537-1.222 1.21a1.21 1.21 0 0 0 1.21 1.233zm2.492-5.633c.672 0 1.222-.55 1.222-1.221 0-.672-.55-1.222-1.222-1.222H6.194c-.672 0-1.221.55-1.221 1.222 0 .672.55 1.221 1.221 1.221zM50.8 6.451a1.203 1.203 0 0 0-.782-.281H39.731V1.772c0-.672-.55-1.222-1.222-1.222H7.392C6.72.55 6.17 1.1 6.17 1.772v8.943c0 .672.55 1.222 1.222 1.222.672 0 1.221-.55 1.221-1.222V2.993H37.3v28.968H27.282c-.672 0-1.222.55-1.222 1.222 0 .672.55 1.222 1.222 1.222h14.917c.672 0 1.222-.55 1.222-1.222 0-.672-.55-1.222-1.222-1.222h-2.456V8.614h9.848l7.965 6.597-.085 16.726h-1.27c-.673 0-1.222.55-1.222 1.221 0 .672.55 1.222 1.221 1.222h2.48c.672 0 1.222-.537 1.222-1.21L60 14.65a1.29 1.29 0 0 0-.452-.953z"/></g></g></svg>