<svg xmlns="http://www.w3.org/2000/svg" width="50" height="60" viewBox="0 0 50 60"><g><g><g><path fill="#f30" d="M24.996 0l-3.498 1.756 1.71 3.422 1.788-.901 21.04 10.52v14.12A21.14 21.14 0 0 1 37.62 45.75l-12.624 9.468-12.624-9.468a21.14 21.14 0 0 1-8.416-16.833v-14.12l2.144-1.07-1.71-3.423-4.26 2.13v16.483a24.985 24.985 0 0 0 9.946 19.893L24.996 60l14.92-11.19a24.984 24.984 0 0 0 9.946-19.893V12.433z"/></g><g><path fill="#f30" d="M19.789 6.876l-1.71-3.421-3.422 1.71 1.71 3.422z"/></g><g><path fill="#f30" d="M12.947 10.302l-1.71-3.421-3.422 1.71 1.71 3.422z"/></g><g><path fill="#f30" d="M10.65 36.653V20.197l14.346-8.827 14.346 8.833v16.45l-14.346 8.83zM35.516 24.69l-8.607 5.298v9.834l8.607-5.304zm-19.304-3.422l8.784 5.405 8.783-5.405-8.783-5.406zm-1.736 13.257l8.607 5.297v-9.834l-8.607-5.298z"/></g></g></g></svg>