<svg xmlns="http://www.w3.org/2000/svg" width="52" height="60" viewBox="0 0 52 60"><g><g><path fill="#f30" d="M50.07 10.334a3.795 3.795 0 0 1 1.521 5.068L45.22 27.203c1.303.29 2.317 1.52 2.317 2.896v8.47h1.23c.652 0 1.159.507 1.159 1.16v8.615c0 .651-.507 1.158-1.159 1.158h-1.23v7.53A2.936 2.936 0 0 1 44.568 60H2.938A2.936 2.936 0 0 1-.03 57.032V24.814a2.936 2.936 0 0 1 2.968-2.969H15.97l10.715-19.91c.942-1.737 3.33-2.461 5.068-1.52zm-15.493-5.72L22.342 27.131H25.6L37.038 5.917zM15.753 27.131h3.982L32.477 3.456l-1.81-1.014c-.651-.362-1.52-.072-1.882.58zM2.214 24.74v2.39c.218-.073.435-.073.652-.073h10.208l1.593-2.896H2.866c-.362 0-.652.362-.652.58zm42.933 24.761H40.66a3.476 3.476 0 0 1-3.475-3.475v-3.982a3.476 3.476 0 0 1 3.475-3.475h4.416v-8.471a.649.649 0 0 0-.652-.652H2.866a.649.649 0 0 0-.652.652v26.933c0 .362.29.651.652.651h41.63c.362 0 .651-.29.651-.651zm-4.488-8.616c-.652 0-1.159.507-1.159 1.159v3.982c0 .651.507 1.158 1.159 1.158h6.878v-6.299zm8.832-26.643c.362-.651.145-1.52-.579-1.81l-9.846-5.357-10.86 20.055H42.54z"/></g></g></svg>