<svg xmlns="http://www.w3.org/2000/svg" width="19" height="25" viewBox="0 0 19 25"><g><g transform="rotate(-90 8.61 12.12)"><g/><g><path fill="#444" d="M21.11 21.305h-25V2.94h25zM-2.425 19.84h22.07V4.405h-22.07z"/></g><g><path fill="#444" d="M-.75 5.76H.715v12.716H-.75z"/></g><g><path fill="#444" d="M2.13 5.76h1.465v9.786H2.13z"/></g><g><path fill="#444" d="M5.01 5.76h1.465v9.786H5.01z"/></g><g><path fill="#444" d="M7.88 5.76h1.465v12.716H7.88z"/></g><g><path fill="#444" d="M10.76 5.76h1.465v9.786H10.76z"/></g><g><path fill="#444" d="M13.63 5.76h1.465v9.786H13.63z"/></g><g><path fill="#444" d="M16.51 5.76h1.465v12.716H16.51z"/></g><g><path fill="#444" d="M2.13 17.01h1.465v1.465H2.13z"/></g><g><path fill="#444" d="M5.01 17.01h1.465v1.465H5.01z"/></g><g><path fill="#444" d="M10.76 17.01h1.465v1.465H10.76z"/></g><g><path fill="#444" d="M13.63 17.01h1.465v1.465H13.63z"/></g></g></g></svg>