<svg xmlns="http://www.w3.org/2000/svg" width="19" height="19" viewBox="0 0 19 19"><g><g><path fill="#fff" d="M7.288 16.505c0 .982-.823 1.795-1.828 1.795-.994 0-1.816-.813-1.816-1.796a1.82 1.82 0 0 1 1.816-1.806c1.005 0 1.828.813 1.828 1.807zM9.412 3.473v2.022H7.356v1.57h2.056v2.02H11v-2.02h2.045v-1.57H11V3.472zM3.004.3l.823 1.795h13.467c.548 0 .914.362.914.904 0 .18 0 .271-.183.452L14.747 9.3c-.274.542-.823.903-1.542.903h-6.74l-.822 1.525v.09c0 .09.091.18.183.18h10.566v1.796H5.46c-.994 0-1.816-.801-1.816-1.795 0-.271.091-.633.183-.903l1.268-2.157-3.279-6.843H0V.3zm13.388 16.204c0 .983-.823 1.796-1.828 1.796a1.81 1.81 0 0 1-1.816-1.796c0-.993.81-1.806 1.816-1.806 1.005 0 1.828.813 1.828 1.807z"/></g></g></svg>