<svg xmlns="http://www.w3.org/2000/svg" width="41" height="40" viewBox="0 0 41 40"><g><g><g/><g><g><path fill="#ff4c00" d="M15.236 9.658h-3.449V6.21a.69.69 0 1 0-1.38 0v3.448H6.96a.69.69 0 1 0 0 1.38h3.448v3.448a.69.69 0 1 0 1.38 0v-3.449h3.448a.69.69 0 1 0 0-1.38z"/></g><g><path fill="#ff4c00" d="M34.546 9.66H26.27a.69.69 0 1 0 0 1.38h8.276a.69.69 0 1 0 0-1.38z"/></g><g><path fill="#ff4c00" d="M40.75 0v40h-40V0zM2.13 19.31h17.93V1.38H2.13zm17.93 19.31V20.69H2.13v17.93zm19.31-17.93H21.44v17.93h17.93zm0-1.38V1.38H21.44v17.93z"/></g><g><path fill="#ff4c00" d="M26.27 32.41h8.276a.69.69 0 1 0 0-1.38H26.27a.69.69 0 1 0 0 1.38z"/></g><g><path fill="#ff4c00" d="M26.27 28.28h8.276a.69.69 0 1 0 0-1.38H26.27a.69.69 0 1 0 0 1.38z"/></g><g><path fill="#ff4c00" d="M15.034 25.722a.689.689 0 0 0-.975 0l-2.96 2.96-2.962-2.96a.689.689 0 1 0-.975.975l2.96 2.961-2.96 2.96a.689.689 0 1 0 .975.976l2.961-2.96 2.96 2.96a.688.688 0 0 0 .976 0 .689.689 0 0 0 0-.975l-2.96-2.96 2.96-2.962a.689.689 0 0 0 0-.975z"/></g></g></g></g></svg>