<svg xmlns="http://www.w3.org/2000/svg" width="20" height="20" viewBox="0 0 20 20"><g><g><g/><g><path fill="#444" d="M18.46 12.56a.498.498 0 0 0-.499.498v4.423a1.496 1.496 0 0 1-1.494 1.494H2.49c-.825 0-1.494-.67-1.495-1.494V4.5a1.496 1.496 0 0 1 1.495-1.495h4.422a.498.498 0 1 0 0-.996H2.491A2.493 2.493 0 0 0 0 4.5v12.98a2.493 2.493 0 0 0 2.49 2.491h13.977a2.493 2.493 0 0 0 2.49-2.49v-4.423a.498.498 0 0 0-.498-.498z"/></g><g><path fill="#444" d="M19.346 1.321a2.244 2.244 0 0 1 0 3.17l-8.887 8.887a.498.498 0 0 1-.219.128l-4.219 1.168a.499.499 0 0 1-.613-.613l1.169-4.219a.498.498 0 0 1 .128-.219L15.59.737a2.241 2.241 0 0 1 3.17 0zm-9.21 10.971l7.272-7.273-2.345-2.345L7.79 9.947zM6.602 13.48l2.592-.718-1.874-1.874zm12.038-9.692a1.247 1.247 0 0 0 0-1.762l-.584-.584a1.245 1.245 0 0 0-1.761 0l-.529.528 2.346 2.346z"/></g></g></g></svg>