<svg xmlns="http://www.w3.org/2000/svg" width="30" height="30" viewBox="0 0 30 30"><g><g><g><path fill="#ff4c00" d="M4.518 23.54H3.232A3.236 3.236 0 0 0 0 26.773v2.353c0 .486.393.88.879.88h3.79a2.62 2.62 0 0 1-.15-.88z"/></g><g><path fill="#ff4c00" d="M10.798 18.83H9.513a3.236 3.236 0 0 0-3.233 3.233v7.06c0 .486.393.88.879.88h3.79a2.626 2.626 0 0 1-.15-.88z"/></g><g><path fill="#ff4c00" d="M29.828 8.829L23.55.356a.88.88 0 0 0-1.412 0l-6.276 8.473a.88.88 0 0 0 .706 1.402h2.26v18.89c0 .486.393.88.878.88h6.276a.879.879 0 0 0 .88-.88v-18.89h2.258a.88.88 0 0 0 .707-1.402z"/></g><g><path fill="#ff4c00" d="M17.068 14.12h-1.285a3.236 3.236 0 0 0-3.233 3.232V29.12c0 .486.394.88.879.88h3.79a2.626 2.626 0 0 1-.15-.88z"/></g></g></g></svg>