<svg xmlns="http://www.w3.org/2000/svg" width="31" height="27" viewBox="0 0 31 27"><g><g><g/><g><g><g><path fill="#444" d="M29.465 4.17L11.09.28A1.449 1.449 0 0 0 9.38 1.396L9.03 3.639l21.2 4.486.35-2.243a1.449 1.449 0 0 0-1.115-1.712z"/></g><g><path fill="#444" d="M22.054 9.735l7.379 1.561-1.296 6.125a1.448 1.448 0 0 1-1.713 1.114l-2.048-.433.546 1.97a1.463 1.463 0 0 1-1.015 1.794l-18.265 5.07a1.463 1.463 0 0 1-1.795-1.016L.663 14.446a1.462 1.462 0 0 1 1.015-1.795l5.65-1.568.905-4.273 8.222 1.74 3.488-.968a1.463 1.463 0 0 1 1.795 1.015zm1.793 4.694a.596.596 0 0 0 .46.705l2.134.452a.596.596 0 0 0 .704-.459l.452-2.135a.596.596 0 0 0-.459-.704l-2.134-.452a.596.596 0 0 0-.705.458zm-21.851-.633a.273.273 0 0 0-.188.332l.623 2.244 18.784-5.213-.472-1.701-.15-.543a.276.276 0 0 0-.333-.187l-1.283.356-11.927 3.31zm21.069 4.028l-1.146-4.128L3.135 18.91l1.858 6.693a.276.276 0 0 0 .331.188L23.59 20.72a.262.262 0 0 0 .161-.128.265.265 0 0 0 .027-.204z"/></g><g><path fill="#444" d="M8.28 20.845a.596.596 0 0 0-.732-.413l-2.133.592a.596.596 0 0 0-.413.731l.592 2.133a.596.596 0 0 0 .731.414l2.133-.592a.596.596 0 0 0 .414-.732z"/></g></g></g></g></g></svg>