<svg xmlns="http://www.w3.org/2000/svg" width="18" height="20" viewBox="0 0 18 20"><g><g><g><path fill="#f30" d="M17.343 2.878c.308 0 .555.247.555.555a.553.553 0 0 1-.555.555h-1.004v13.043A2.973 2.973 0 0 1 13.371 20H4.637a2.973 2.973 0 0 1-2.969-2.969V3.988H.665a.553.553 0 0 1-.555-.555c0-.308.247-.555.555-.555h4.161V2.2c0-1.213.987-2.2 2.2-2.2h3.956c1.213 0 2.2.987 2.2 2.2v.678zm-11.407 0h6.135V2.2c0-.6-.489-1.09-1.09-1.09H7.027c-.6 0-1.09.49-1.09 1.09zm9.297 14.153V3.988H2.78v13.043c0 1.024.834 1.859 1.858 1.859h8.734a1.862 1.862 0 0 0 1.858-1.859z"/></g><g><path fill="#f30" d="M8.995 16.901a.553.553 0 0 0 .555-.555v-9.81a.553.553 0 0 0-.555-.556.553.553 0 0 0-.555.555v9.807c0 .308.247.56.555.56z"/></g><g><path fill="#f30" d="M5.375 16.29a.553.553 0 0 0 .555-.555v-8.59a.553.553 0 0 0-.555-.555.553.553 0 0 0-.555.555v8.59c0 .308.25.555.555.555z"/></g><g><path fill="#f30" d="M12.625 16.29a.553.553 0 0 0 .555-.555v-8.59a.553.553 0 0 0-.555-.555.553.553 0 0 0-.555.555v8.59c0 .308.247.555.555.555z"/></g></g></g></svg>