<svg xmlns="http://www.w3.org/2000/svg" width="25" height="26" viewBox="0 0 25 26"><g><g><g/><g><path fill="#444" d="M23.987 21.65l1.088 3.935-3.934-1.088a8.052 8.052 0 0 1-4.112 1.123 8.1 8.1 0 0 1-7.787-5.918 9.51 9.51 0 0 1-4.438-1.314L.145 19.676l1.289-4.658A9.516 9.516 0 0 1 .11 10.166C.11 4.902 4.392.62 9.656.62c5.125 0 9.319 4.06 9.536 9.132a8.1 8.1 0 0 1 5.918 7.787c0 1.455-.387 2.869-1.123 4.112zM5.31 16.98a8.055 8.055 0 0 0 4.346 1.267c4.456 0 8.081-3.625 8.081-8.081 0-4.456-3.625-8.081-8.081-8.081-4.456 0-8.081 3.625-8.081 8.08 0 1.547.438 3.05 1.267 4.347l.176.275-.772 2.789 2.789-.772zm17.091 4.434l.18-.276a6.59 6.59 0 0 0 1.064-3.6 6.633 6.633 0 0 0-4.507-6.272 9.564 9.564 0 0 1-8.382 8.382 6.633 6.633 0 0 0 6.273 4.507 6.59 6.59 0 0 0 3.6-1.064l.275-.18 2.07.573z"/></g><g><path fill="#444" d="M8.93 13.85h1.465v1.465H8.93z"/></g><g><path fill="#444" d="M11.125 7.94c0 .416-.17.8-.477 1.081l-1.72 1.575v1.787h1.464v-1.142l1.245-1.14a2.938 2.938 0 0 0 .952-2.161 2.933 2.933 0 0 0-2.93-2.93A2.933 2.933 0 0 0 6.73 7.94h1.465c0-.808.657-1.465 1.465-1.465.807 0 1.465.657 1.465 1.465z"/></g></g></g></svg>