<svg xmlns="http://www.w3.org/2000/svg" width="30" height="30" viewBox="0 0 30 30"><g><g><g/><g><path fill="#ff4c00" d="M7.705 27.656a1.172 1.172 0 0 1 0 2.344H3.556A3.537 3.537 0 0 1 .8 28.69a3.558 3.558 0 0 1-.724-2.984 15.289 15.289 0 0 1 5.246-8.656 15.227 15.227 0 0 1 4.911-2.7A7.962 7.962 0 0 1 7.031 7.97C7.031 3.575 10.606 0 15 0s7.969 3.575 7.969 7.969a7.962 7.962 0 0 1-3.197 6.378c.196.064.392.133.586.205a1.172 1.172 0 1 1-.824 2.195 12.838 12.838 0 0 0-4.233-.816 7.934 7.934 0 0 1-.6 0c-5.955.139-11.114 4.408-12.33 10.253-.076.365.014.74.248 1.027.135.166.437.445.937.445zm7.02-14.069a14.8 14.8 0 0 1 .549 0 5.632 5.632 0 0 0 5.351-5.618A5.631 5.631 0 0 0 15 2.344a5.631 5.631 0 0 0-5.625 5.625 5.632 5.632 0 0 0 5.35 5.618z"/></g><g><path fill="#ff4c00" d="M29.098 20.192a3.158 3.158 0 0 0-2.881-1.852h-3.663c-1.318 0-2.468.777-2.931 1.98-.062.161-.137.363-.215.598h-7.673c-.317 0-.62.128-.84.356L8.88 23.347a1.172 1.172 0 0 0 .005 1.638l2.05 2.087c.221.224.522.35.837.35h3.808a1.172 1.172 0 1 0 0-2.344h-3.317l-.904-.92.87-.896h8.057c.54 0 1.01-.369 1.138-.893.095-.387.214-.76.386-1.207.113-.295.398-.478.746-.478h3.657a.8.8 0 0 1 .745.465c.314.703.69 1.793.693 2.987.002 1.203-.373 2.317-.688 3.04a.8.8 0 0 1-.736.48H22.527a.834.834 0 0 1-.755-.519 7.786 7.786 0 0 1-.364-1.16 1.172 1.172 0 0 0-2.279.546c.136.568.292 1.062.476 1.508a3.161 3.161 0 0 0 2.92 1.97h3.705c1.251-.001 2.382-.74 2.882-1.888.405-.928.887-2.373.883-3.983-.004-1.604-.49-3.027-.897-3.938z"/></g><g><path fill="#ff4c00" d="M25.252 25.314a1.172 1.172 0 1 0 0-2.344 1.172 1.172 0 0 0 0 2.344z"/></g></g></g></svg>