<svg xmlns="http://www.w3.org/2000/svg" width="12" height="21" viewBox="0 0 12 21"><g><g><path fill="#fff" d="M5.02 14.366c-1.55-.162-2.948-.544-4.145-1.48-.149-.117-.302-.229-.437-.359-.524-.503-.577-1.08-.163-1.673.355-.508.95-.644 1.57-.352.119.056.233.127.342.203 2.231 1.532 5.295 1.575 7.534.068.222-.17.46-.308.734-.38.534-.136 1.033.06 1.32.527.327.534.323 1.056-.08 1.47-.62.636-1.365 1.095-2.192 1.416-.782.304-1.64.456-2.487.558.128.139.188.207.268.288 1.152 1.157 2.308 2.31 3.456 3.47.391.395.473.886.258 1.346-.236.502-.763.833-1.28.798-.327-.023-.582-.186-.81-.414-.868-.875-1.754-1.733-2.605-2.624-.248-.26-.367-.21-.586.015-.874.9-1.763 1.786-2.656 2.667-.402.396-.88.467-1.345.241-.495-.24-.81-.745-.785-1.252.017-.344.185-.606.421-.841 1.14-1.138 2.276-2.28 3.413-3.42.076-.075.146-.155.255-.272z"/></g><g><path fill="#fff" d="M5.958 10.403C3.192 10.393.924 8.101.94 5.33A5.07 5.07 0 0 1 6.02.28c2.799.008 5.045 2.297 5.031 5.127-.014 2.765-2.298 5.006-5.092 4.996zm2.514-5.066a2.465 2.465 0 0 0-2.473-2.472 2.469 2.469 0 0 0-2.48 2.502A2.465 2.465 0 0 0 6.012 7.82a2.46 2.46 0 0 0 2.46-2.483z"/></g></g></svg>