<svg xmlns="http://www.w3.org/2000/svg" width="19" height="20" viewBox="0 0 19 20"><g><g><path fill="#59b400" d="M18.691 18.217a1.067 1.067 0 0 1-.029 1.49 1.022 1.022 0 0 1-1.465-.03l-4.72-4.988a7.774 7.774 0 0 1-4.551 1.461c-4.381 0-7.946-3.622-7.946-8.075C-.02 3.623 3.545 0 7.926 0c4.38 0 7.945 3.623 7.945 8.075 0 1.906-.66 3.736-1.864 5.191zM2.053 8.075c0 3.291 2.634 5.969 5.873 5.969 3.238 0 5.873-2.678 5.873-5.969 0-3.291-2.635-5.968-5.873-5.968-3.239 0-5.873 2.677-5.873 5.968z"/></g></g></svg>