<svg xmlns="http://www.w3.org/2000/svg" width="30" height="18" viewBox="0 0 30 18"><g><g><path fill="#ff4c00" d="M13.62 15.088a2.504 2.504 0 0 1-5.008 0 2.505 2.505 0 1 1 5.008 0zm-1.252 0a1.25 1.25 0 1 0-2.504 0c0 .689.56 1.252 1.252 1.252s1.252-.563 1.252-1.252zM30 10.728v2.674c0 .667-.54 1.208-1.208 1.208H27.5a3.318 3.318 0 0 0-3.28-2.835 3.317 3.317 0 0 0-3.277 2.834h-6.55a3.317 3.317 0 0 0-3.276-2.834A3.317 3.317 0 0 0 7.84 14.61H6.222c-.667 0-1.208-.54-1.208-1.207v-2.674zm-3.273 4.36a2.507 2.507 0 0 1-5.012 0 2.508 2.508 0 0 1 2.508-2.507 2.507 2.507 0 0 1 2.504 2.507zm-1.252 0c0-.692-.564-1.251-1.252-1.251a1.25 1.25 0 0 0-1.252 1.251c0 .689.56 1.252 1.252 1.252.688 0 1.252-.563 1.252-1.252zm4.05-7.052c.301.302.474.712.474 1.143v.882H5.013V7.688L0 6.742l8.765-.76L0 4.736l8.796-.874-8.683-1.13 4.9-.565v-.19c0-.668.544-1.207 1.208-1.207h13.823c.669 0 1.208.54 1.208 1.208v.897h2.395c.423 0 .83.17 1.131.467zm-2.07.157c.17 0 .254-.21.129-.326L23.869 4.32a.204.204 0 0 0-.133-.052h-.874a.189.189 0 0 0-.19.19v3.546c0 .104.086.189.19.189z"/></g></g></svg>