<svg xmlns="http://www.w3.org/2000/svg" width="26" height="25" viewBox="0 0 26 25"><g><g><g><path fill="#fff" d="M4.333 10.317h5.634a.433.433 0 1 0 0-.867H4.333a.433.433 0 1 0 0 .867z"/></g><g><path fill="#fff" d="M15.6 12.05H4.333a.433.433 0 1 0 0 .867H15.6a.433.433 0 1 0 0-.867z"/></g><g><path fill="#fff" d="M15.6 14.65H4.333a.433.433 0 1 0 0 .867H15.6a.433.433 0 1 0 0-.867z"/></g><g><path fill="#fff" d="M23.431.38A2.573 2.573 0 0 1 26 2.95v9.162a2.572 2.572 0 0 1-2.57 2.57h-.463v4.333a.433.433 0 0 1-.754.291l-2.28-2.507v.049a2.572 2.572 0 0 1-2.57 2.57l-7.204.029-4.205 4.625a.434.434 0 0 1-.754-.291v-4.334H2.57A2.572 2.572 0 0 1 0 16.878v-9.16a2.572 2.572 0 0 1 2.57-2.57l3.497-.008V2.92A2.572 2.572 0 0 1 8.637.35zm-4.364 7.306c0-.94-.764-1.703-1.703-1.703L6.5 6.005H6.5l-3.93.009c-.94 0-1.703.764-1.703 1.703v9.16c0 .94.764 1.703 1.703 1.703h3.063c.24 0 .434.195.434.434v3.646l3.579-3.938a.434.434 0 0 1 .319-.142l7.397-.03c.94 0 1.705-.763 1.705-1.703zm6.067 4.425V2.95c0-.94-.764-1.703-1.703-1.703h-.001l-14.795-.03c-.938 0-1.702.763-1.702 1.702v2.219l10.43-.021a2.573 2.573 0 0 1 2.57 2.57v7.823l2.167 2.383v-3.646c0-.24.194-.433.433-.433h.897c.94 0 1.703-.764 1.703-1.703z"/></g></g></g></svg>