<svg xmlns="http://www.w3.org/2000/svg" width="19" height="25" viewBox="0 0 19 25"><g><g><g><path fill="#fff" d="M14.4 9.15h-10a.4.4 0 1 0 0 .8h10a.4.4 0 1 0 0-.8z"/></g><g><path fill="#fff" d="M4.4 6.75h4a.4.4 0 1 0 0-.8h-4a.4.4 0 1 0 0 .8z"/></g><g><path fill="#fff" d="M14.4 12.35h-10a.4.4 0 1 0 0 .8h10a.4.4 0 1 0 0-.8z"/></g><g><path fill="#fff" d="M14.4 15.55h-10a.4.4 0 1 0 0 .8h10a.4.4 0 1 0 0-.8z"/></g><g><path fill="#fff" d="M14.4 18.75h-10a.4.4 0 1 0 0 .8h10a.4.4 0 1 0 0-.8z"/></g><g><path fill="#fff" d="M18.8 6.184V24.35H0v-24h12.966zm-5.6-.234h4.234L13.2 1.716zm4.8 17.6V6.75h-5.6v-5.6H.8v22.4z"/></g></g></g></svg>