<svg xmlns="http://www.w3.org/2000/svg" width="24" height="25" viewBox="0 0 24 25"><g><g><g><path fill="#fff" d="M6 4.866A3.735 3.735 0 0 1 7.5 7.85 3.73 3.73 0 0 1 6 10.833V22.1c0 1.24-1.01 2.25-2.25 2.25S1.5 23.34 1.5 22.1V10.833A3.73 3.73 0 0 1 0 7.85c0-1.223.594-2.298 1.5-2.984V2.6C1.5 1.36 2.51.35 3.75.35S6 1.36 6 2.6zm-3-.691a3.796 3.796 0 0 1 1.5 0V2.6a.75.75 0 1 0-1.5 0zm1.5 7.349a3.684 3.684 0 0 1-1.5 0V22.1a.75.75 0 1 0 1.5 0zM6 7.85c0-.221-.041-.43-.101-.631a2.198 2.198 0 0 0-.32-.67l-.01-.012a2.307 2.307 0 0 0-.462-.47l-.008-.006a2.308 2.308 0 0 0-.599-.323 2.221 2.221 0 0 0-.75-.138c-.265 0-.514.054-.75.138a2.29 2.29 0 0 0-.599.322l-.007.006a2.307 2.307 0 0 0-.462.47l-.01.012a2.193 2.193 0 0 0-.284.553c-.014.039-.025.078-.037.117-.06.201-.101.41-.101.632 0 .22.041.429.1.63.013.039.023.078.037.118.072.197.163.384.284.552l.01.012A2.27 2.27 0 0 0 3 9.96c.236.086.485.14.75.14s.515-.054.75-.139c.216-.076.418-.186.598-.322l.008-.006a2.27 2.27 0 0 0 .462-.47l.01-.013c.121-.166.213-.354.284-.552.014-.04.025-.078.037-.118.06-.201.101-.41.101-.63z"/></g><g><path fill="#fff" d="M22.5 4.866A3.738 3.738 0 0 1 24 7.85a3.731 3.731 0 0 1-1.5 2.983V22.1c0 1.24-1.01 2.25-2.25 2.25S18 23.34 18 22.1V10.833a3.728 3.728 0 0 1-1.5-2.983c0-1.223.593-2.298 1.5-2.984V2.6C18 1.36 19.01.35 20.25.35S22.5 1.36 22.5 2.6zm-3-.691a3.785 3.785 0 0 1 1.5 0V2.6a.75.75 0 1 0-1.5 0zm1.5 7.349a3.694 3.694 0 0 1-1.5 0V22.1a.75.75 0 1 0 1.5 0zm1.5-3.674c0-.221-.041-.43-.1-.63-.012-.04-.024-.08-.037-.118a2.273 2.273 0 0 0-.285-.553l-.01-.012a2.323 2.323 0 0 0-.469-.476A2.32 2.32 0 0 0 20.25 5.6c-.266 0-.515.054-.75.137-.216.078-.419.188-.599.323-.003.001-.004.004-.007.006a2.291 2.291 0 0 0-.463.47l-.01.012c-.12.168-.213.355-.283.553-.015.039-.025.078-.037.117-.06.201-.101.41-.101.632 0 .22.041.429.1.63.012.039.022.078.037.118.07.197.163.384.283.552l.01.012c.131.178.286.336.463.47l.008.006c.18.137.382.246.599.323.235.085.484.139.75.139a2.2 2.2 0 0 0 .75-.139c.216-.076.417-.186.598-.322l.008-.006c.175-.134.33-.292.461-.47.003-.005.008-.008.01-.013a2.21 2.21 0 0 0 .285-.552l.037-.118c.06-.201.101-.41.101-.63z"/></g><g><path fill="#fff" d="M14.25 13.866a3.738 3.738 0 0 1 1.5 2.984 3.731 3.731 0 0 1-1.5 2.983V22.1c0 1.24-1.01 2.25-2.25 2.25s-2.25-1.01-2.25-2.25v-2.267a3.73 3.73 0 0 1-1.5-2.983c0-1.223.594-2.299 1.5-2.984V2.6C9.75 1.36 10.76.35 12 .35s2.25 1.01 2.25 2.25zm-3-.691a3.793 3.793 0 0 1 1.5 0V2.6a.75.75 0 1 0-1.5 0zm1.5 7.348a3.694 3.694 0 0 1-1.5 0V22.1a.75.75 0 1 0 1.5 0zm1.5-3.673c0-.221-.041-.43-.1-.63-.013-.04-.024-.08-.037-.118a2.273 2.273 0 0 0-.284-.553l-.011-.012a2.323 2.323 0 0 0-.469-.477A2.32 2.32 0 0 0 12 14.6a2.308 2.308 0 0 0-1.348.46l-.008.006a2.307 2.307 0 0 0-.462.47l-.01.012c-.121.168-.213.355-.284.553-.014.039-.025.078-.037.118-.06.2-.101.41-.101.631 0 .22.041.429.1.63.013.039.023.078.037.118.071.197.163.385.284.552l.01.012a2.272 2.272 0 0 0 1.069.799c.235.085.485.139.75.139.264 0 .514-.054.75-.139a2.23 2.23 0 0 0 .598-.322l.008-.006c.175-.134.33-.292.461-.47.003-.005.008-.008.01-.012a2.21 2.21 0 0 0 .285-.552l.037-.119c.06-.201.101-.41.101-.63z"/></g></g></g></svg>