<svg xmlns="http://www.w3.org/2000/svg" width="30" height="30" viewBox="0 0 30 30"><g><g><g><path fill="#59b400" d="M29.213 23.142l-6.072-4.05a1.772 1.772 0 0 0-2.373.386l-1.77 2.274a.756.756 0 0 1-.969.205l-.336-.186c-1.115-.608-2.503-1.365-5.3-4.162-2.795-2.797-3.554-4.186-4.162-5.299l-.184-.336a.757.757 0 0 1 .2-.973l2.273-1.769c.727-.57.895-1.602.385-2.373L6.856.787A1.763 1.763 0 0 0 4.479.252L1.94 1.777a3.582 3.582 0 0 0-1.633 2.12C-.607 7.23.081 12.978 8.55 21.45c6.738 6.737 11.754 8.549 15.201 8.549.793.003 1.584-.1 2.35-.307a3.578 3.578 0 0 0 2.12-1.633l1.526-2.538a1.763 1.763 0 0 0-.534-2.378z"/></g><g><path fill="#59b400" d="M17 5a8.508 8.508 0 0 1 8.499 8.499.5.5 0 1 0 1 0A9.509 9.509 0 0 0 16.998 4a.5.5 0 1 0 0 1z"/></g><g><path fill="#59b400" d="M17 8a5.506 5.506 0 0 1 5.5 5.499.5.5 0 0 0 .999 0A6.506 6.506 0 0 0 16.999 7a.5.5 0 1 0 0 1z"/></g><g><path fill="#59b400" d="M17 11a2.503 2.503 0 0 1 2.5 2.5.5.5 0 0 0 1 0A3.503 3.503 0 0 0 17 10a.5.5 0 1 0 0 1z"/></g></g></g></svg>