<svg xmlns="http://www.w3.org/2000/svg" width="40" height="51" viewBox="0 0 40 51"><g><g><g/><g><g><g><g><path fill="#ff4c00" d="M39.357 41.123c0 .084 0 .167-.084.25v.084c-.083.083-.083.166-.166.25l-8.334 8.333a.756.756 0 0 1-.583.25H1.023c-.5 0-.833-.333-.833-.833V1.123c0-.5.333-.833.833-.833h37.5c.5 0 .834.333.834.833zm-37.5 7.5h27.5v-7.5c0-.5.333-.833.833-.833h7.5V1.957H1.857zm34.666-6.666h-5.5v5.5z"/></g><g><path fill="#ff4c00" d="M6.023 36.957c-.5 0-.833-.334-.833-.834v-30c0-.5.333-.833.833-.833h27.5c.5 0 .834.333.834.833v30c0 .5-.334.834-.834.834zm.834-25V35.29h5.833V11.957zm7.5 17.5H32.69v-5H14.357zM32.69 22.79v-5H14.357v5zm0-6.667v-4.166H14.357v4.166zm0 19.167v-4.167H14.357v4.167zm0-28.333H14.357v3.333H32.69zm-25.833 0v3.333h5.833V6.957z"/></g><g><path fill="#ff4c00" d="M11.02 13.63h-2.5v1.667h2.5z"/></g><g><path fill="#ff4c00" d="M11.02 19.46h-2.5v1.667h2.5z"/></g><g><path fill="#ff4c00" d="M11.02 26.13h-2.5v1.667h2.5z"/></g><g><path fill="#ff4c00" d="M11.02 31.96h-2.5v1.667h2.5z"/></g><g><path fill="#ff4c00" d="M13.523 39.46c.5 0 .834.333.834.833v5c0 .5-.334.834-.834.834h-7.5c-.5 0-.833-.334-.833-.834v-5c0-.5.333-.833.833-.833zm-.833 1.667H6.857v3.333h5.833z"/></g><g><path fill="#ff4c00" d="M22.683 40.29H16.85v1.667h5.833z"/></g><g><path fill="#ff4c00" d="M25.183 43.63H16.85v1.667h8.333z"/></g></g></g></g></g></g></svg>