<svg xmlns="http://www.w3.org/2000/svg" width="51" height="46" viewBox="0 0 51 46"><g><g><path fill="#ff4c00" d="M50.77 15.5v5.83c-.004 1.57-2.008 2.8-5 3.72v5.447c0 .259-.058.509-.163.75 1.72.712 2.591 1.565 2.65 2.586h.013v5.83c-.007 2.773-6.247 4.494-13.182 5.298-.05.01-.097.03-.151.03-.016 0-.03-.008-.045-.008a80.603 80.603 0 0 1-4.04.353c-.028.002-.053.016-.082.016-.015 0-.028-.008-.043-.009a82.08 82.08 0 0 1-4.957.157c-1.57 0-3.25-.053-4.957-.156-.015.001-.027.01-.043.01-.03 0-.054-.014-.082-.017a81.8 81.8 0 0 1-4.04-.353c-.015.001-.029.01-.045.01-.054 0-.1-.022-.151-.032-6.934-.803-13.175-2.524-13.182-5.295v-5.833h.013c.01-.177.049-.349.11-.518-1.626-.78-2.62-1.714-2.623-2.817v-5.832h.008c.081-1.403 1.717-2.501 4.992-3.345V15.5h.013c.008-.143.033-.284.075-.423-3.04-.922-5.084-2.161-5.088-3.745V5.5h.014c.299-4.857 20.2-5 22.486-5 2.286 0 22.188.143 22.486 5h.014v5.83c0 .27-.065.53-.18.78 3.393.85 5.088 1.964 5.17 3.39zm-6.757 15.267a.53.53 0 0 0 .09-.272v-3.448c-.665.419-1.509.801-2.5 1.146v3.974c.96-.375 1.689-.765 2.126-1.15zM26.9 34.588c.181-.007.36-.016.538-.025v-4.16c-.835.038-1.674.064-2.513.08l-.132.002-.688.01v4.162c.302-.002.607-.004.904-.01l.367-.007c.516-.013 1.022-.03 1.524-.052zm-4.947.069l.485.004v-4.165l-.688-.01-.131-.003c-.84-.015-1.679-.04-2.514-.08v4.16c.448.022.899.041 1.353.056l.14.005c.377.012.757.021 1.139.028.072 0 .143.003.217.005zM6.99 32.837c.642.175 1.348.346 2.113.509v-4.068a37.214 37.214 0 0 1-2.5-.576v4.026l.081.024c.1.029.204.056.306.085zm17.127 6.814c-.84-.015-1.679-.041-2.514-.08v4.16c1.07.053 2.182.086 3.334.097v-4.166c-.23-.002-.459-.005-.688-.01l-.132-.001zm3.174 0c-.23.005-.458.008-.688.01v4.166a84.131 84.131 0 0 0 3.334-.096V39.57a93.18 93.18 0 0 1-2.514.08l-.132.002zm6.812-.378c-.82.08-1.655.147-2.5.202v4.156c.866-.061 1.7-.135 2.5-.22zm1.667 3.942c.88-.116 1.715-.243 2.5-.382v-4.091c-.807.13-1.64.248-2.5.351zm4.167-.703a36.389 36.389 0 0 0 2.5-.618v-4.026c-.779.21-1.615.402-2.5.576zm-28.334-4.068a36.79 36.79 0 0 1-2.5-.576v4.026c.743.214 1.579.422 2.5.618zm1.667 4.39c.785.138 1.62.266 2.5.382v-4.122c-.86-.103-1.693-.22-2.5-.352zm4.167.578c.8.085 1.634.159 2.5.22v-4.156a82.749 82.749 0 0 1-2.5-.203zm0-8.95V30.31a82.749 82.749 0 0 1-2.5-.203v4.138l.179.02c.084.007.168.017.253.025.676.066 1.368.122 2.068.172zm-4.167-4.535c-.86-.103-1.693-.221-2.5-.352v4.092c.785.138 1.62.265 2.5.381zm16.75 4.467c.542-.044 1.068-.095 1.583-.149v-4.138c-.82.08-1.655.146-2.5.202v4.156a89.613 89.613 0 0 0 .918-.07zm3.25-.346c.88-.115 1.715-.243 2.5-.381v-4.092c-.807.13-1.64.248-2.5.352zm4.167-.703a36.273 36.273 0 0 0 2.5-.618v-4.025c-.779.21-1.615.401-2.5.575zm-11.212-7.87c.396.01.805.01 1.21.015v-4.16l-.687-.01a87.03 87.03 0 0 1-2.645-.082v4.16c.032 0 .064.002.097.004.602.029 1.214.053 1.84.069l.185.004zM6.603 13.562a33.719 33.719 0 0 0 2.192.552l.308.065v-4.067a37.257 37.257 0 0 1-2.5-.576zm15.014-2.244c-.84-.015-1.679-.041-2.514-.08v4.157c1.097.055 2.212.084 3.334.095v-4.16a98.412 98.412 0 0 1-.82-.012zm3.174.001c-.23.004-.458.008-.688.01v4.163c.301-.004.604-.005.901-.01l.27-.006a78.99 78.99 0 0 0 1.707-.057c.012 0 .024 0 .036-.002.142-.006.278-.016.42-.023v-4.157c-.835.038-1.674.064-2.514.08l-.132.002zm19.122.416c.124-.144.19-.28.19-.407V7.878c-.665.42-1.509.802-2.5 1.147v3.964c.867-.335 1.543-.682 1.983-1.024l.303-.236zM33.27 14.877c.878-.115 1.71-.244 2.5-.384v-4.085c-.807.131-1.64.249-2.5.352zm4.167-.705a35.753 35.753 0 0 0 2.5-.62V9.537c-.779.21-1.615.402-2.5.576zm-5.834-3.232c-.82.08-1.655.147-2.5.203v4.151a74.44 74.44 0 0 0 2.5-.22zm-16.666 4.135c.815.086 1.651.155 2.5.216v-4.149a82.749 82.749 0 0 1-2.5-.202zM13.27 10.76c-.86-.102-1.693-.22-2.5-.35v4.09l.273.05c.461.077.932.15 1.414.22l.313.046c.163.022.335.04.5.061zm9.167 14.536v-4.153a82.749 82.749 0 0 1-2.5-.203v4.138l.066.008.327.033a72.776 72.776 0 0 0 1.9.163l.207.014zm-5.655-.626c.479.075.978.145 1.488.212v-4.121c-.86-.103-1.693-.221-2.5-.352v4.087c.314.055.624.112.954.164l.058.01zm-2.679-4.56a36.737 36.737 0 0 1-2.5-.575v4.01c.745.22 1.58.43 2.5.627zm-4.166-1.084c-.991-.345-1.835-.728-2.5-1.147v3.451c0 .026.009.053.014.08l.056.093c.275.46 1.12.976 2.43 1.482zm19.854 2.293c-.23.004-.458.008-.688.01v4.16a85.525 85.525 0 0 0 3.334-.096v-4.156c-.835.038-1.674.064-2.514.08l-.132.002zM40.77 24.5v-4.092c-.807.131-1.641.249-2.5.352v4.117c.214-.027.433-.053.644-.083.223-.032.446-.063.663-.097.38-.057.749-.12 1.114-.183l.079-.014zm-5.633.718c.498-.042.981-.093 1.465-.144V20.94c-.82.08-1.655.147-2.5.203v4.148c.315-.023.636-.04.947-.065l.088-.008zm9.8-1.656v-4.026c-.779.21-1.616.401-2.5.576v4.066c.064-.015.133-.027.197-.041a38.45 38.45 0 0 0 1.938-.474l.365-.101zm-.653-10.047c-.05.033-.113.065-.165.098-.092.06-.193.118-.292.175-.088.05-.169.101-.262.15-.207.111-.43.218-.661.322-.06.028-.125.054-.188.082-.216.094-.443.186-.679.276l-.142.055c-.28.103-.568.202-.87.299l-.317.096c-.173.053-.349.105-.529.156-3.905 1.116-9.517 1.836-15.572 1.93a72.374 72.374 0 0 1-3.22-.011 85.145 85.145 0 0 1-3.102-.128c-.006 0-.01.003-.016.003-.01 0-.02-.006-.03-.006a76.762 76.762 0 0 1-4.132-.355l-.005.001c-.006 0-.01-.003-.017-.003a56.584 56.584 0 0 1-5.446-.873c-.34-.071-.674-.146-1-.224-.058-.014-.12-.025-.178-.04-.01.02-.01.034-.014.05.095.563 1.375 1.31 3.646 2.011 2.948.911 7.562 1.745 13.409 2.004.298.012.596.025.902.035a91.764 91.764 0 0 0 2.865.05 96.604 96.604 0 0 0 2.865-.05c.305-.01.603-.022.902-.035 5.847-.258 10.46-1.092 13.409-2.003 2.289-.707 3.571-1.46 3.648-2.026-.095-.345-1.078-1.23-4.809-2.039zM2.449 5.572c.101.563 1.38 1.307 3.645 2.007 2.948.911 7.562 1.745 13.409 2.003.298.013.596.026.902.035a91.597 91.597 0 0 0 2.865.05 91.597 91.597 0 0 0 2.865-.05c.305-.01.603-.022.902-.035 5.847-.258 10.46-1.092 13.409-2.003 2.265-.7 3.544-1.444 3.645-2.007-.13-1.242-7.08-3.405-20.821-3.405-13.74 0-20.69 2.163-20.82 3.405zm-.012 5.758c.001.47.879 1.078 2.5 1.686v-3.99c-.991-.345-1.835-.728-2.5-1.147zm.009 13.388c.074.566 1.356 1.32 3.648 2.028 2.948.91 7.562 1.745 13.409 2.003a75.806 75.806 0 0 0 1.656.058c.69.016 1.39.026 2.111.026.542 0 1.07-.007 1.593-.016.208-.004.415-.007.62-.012.19-.005.374-.012.562-.018 6.317-.203 11.288-1.079 14.4-2.04 1.032-.32 1.86-.647 2.466-.964-2.794.604-6.099 1.024-9.62 1.232-.008 0-.013.004-.021.004l-.012-.002a86.066 86.066 0 0 1-4.988.15c-.502 0-1.015-.007-1.537-.018a83.875 83.875 0 0 1-3.46-.131h-.01c-3.512-.206-6.736-.622-9.437-1.197-.222-.046-.441-.093-.657-.142-.068-.016-.14-.03-.207-.046-2.941-.675-5.304-1.58-6.445-2.732-.012-.013-.031-.025-.044-.038-3.092.758-3.935 1.542-4.027 1.855zm-.01 5.779c.002.42.706.952 2.015 1.495l.01-.01.476.185v-3.975c-.991-.345-1.835-.727-2.5-1.146zm2.5 9.166c.002.47.88 1.079 2.5 1.686v-3.99c-.99-.345-1.833-.727-2.5-1.147zm39.167 1.686c1.621-.608 2.5-1.218 2.5-1.687v-3.449c-.666.42-1.509.802-2.5 1.147zm.337-8.772c-.073.052-.166.102-.246.154a6.68 6.68 0 0 1-.267.167c-.075.044-.15.09-.23.133-1.462.81-3.592 1.465-6.053 1.97l-.175.036a60.514 60.514 0 0 1-4.98.778c-.018 0-.033.01-.052.01-.004 0-.009-.003-.014-.003-1.329.153-2.712.276-4.141.361-.005 0-.007.003-.011.003l-.007-.002c-1.173.07-2.373.115-3.589.135a80.91 80.91 0 0 1-1.405.014c-.346 0-.698-.003-1.053-.01a83.293 83.293 0 0 1-3.945-.14l-.002.001h-.004c-4.183-.248-8.057-.799-11.092-1.577-.137-.035-.273-.069-.407-.105l-.27-.074a24.45 24.45 0 0 1-1.54-.478c.16.558 1.433 1.282 3.637 1.962 2.948.911 7.562 1.745 13.408 2.004.301.012.601.025.909.035a91.398 91.398 0 0 0 2.86.05 96.613 96.613 0 0 0 2.864-.05c.305-.01.603-.022.902-.034 5.847-.259 10.46-1.093 13.409-2.004 2.276-.703 3.556-1.451 3.646-2.015-.054-.21-.507-.735-2.152-1.321zm2.163-9.561c1.621-.608 2.5-1.218 2.5-1.688V17.88c-.666.42-1.509.802-2.5 1.147z"/></g></g></svg>