<svg xmlns="http://www.w3.org/2000/svg" width="20" height="12" viewBox="0 0 20 12"><g><g><path fill="#fff" d="M19.894 10.601a1.38 1.38 0 0 0-.068-.13c-.347-.626-1.01-1.394-1.989-2.305l-.02-.021-.01-.01-.011-.01h-.01c-.445-.425-.726-.71-.844-.856-.216-.278-.264-.56-.146-.845.083-.216.396-.67.937-1.366.285-.369.51-.664.677-.887 1.2-1.599 1.722-2.62 1.562-3.066l-.062-.104c-.042-.062-.15-.12-.323-.172-.174-.052-.396-.06-.666-.026l-3 .02a.388.388 0 0 0-.208.006l-.135.032-.052.026-.042.031a.462.462 0 0 0-.114.11.714.714 0 0 0-.104.182 17.044 17.044 0 0 1-1.115 2.346c-.256.432-.492.805-.708 1.122-.215.316-.395.549-.541.698-.146.15-.278.27-.396.36-.118.09-.208.129-.27.115a7.67 7.67 0 0 1-.178-.042.693.693 0 0 1-.234-.255 1.148 1.148 0 0 1-.12-.407 4.493 4.493 0 0 1-.036-.423 8.731 8.731 0 0 1 .005-.5c.007-.216.01-.362.01-.438 0-.265.006-.551.016-.86l.026-.736c.007-.18.01-.372.01-.574 0-.201-.012-.36-.036-.474a1.624 1.624 0 0 0-.109-.334.562.562 0 0 0-.213-.25 1.202 1.202 0 0 0-.35-.141C10.66.334 10.192.288 9.623.281 8.33.268 7.5.351 7.133.531c-.146.077-.278.182-.396.314-.125.153-.142.236-.052.25.417.062.712.212.885.448l.063.126c.049.09.097.25.146.48.048.229.08.482.093.76a8.13 8.13 0 0 1 0 1.304c-.034.362-.067.643-.099.845a1.694 1.694 0 0 1-.265.72.18.18 0 0 1-.052.052.779.779 0 0 1-.281.052c-.098 0-.216-.049-.354-.146a2.499 2.499 0 0 1-.432-.402 5.367 5.367 0 0 1-.506-.714A12.472 12.472 0 0 1 5.3 3.535l-.166-.302a26.012 26.012 0 0 1-.427-.85c-.18-.372-.34-.732-.48-1.08A.687.687 0 0 0 3.979.97L3.926.938A.713.713 0 0 0 3.759.85a1.103 1.103 0 0 0-.24-.068L.668.802c-.292 0-.49.067-.594.199l-.042.062A.338.338 0 0 0 0 1.23c0 .077.02.17.063.282.416.98.869 1.926 1.358 2.837.49.91.915 1.644 1.276 2.2.36.556.729 1.081 1.104 1.575.375.494.623.81.744.949.122.14.217.243.287.313l.26.25c.167.167.411.367.734.6.323.233.68.462 1.073.688.392.226.848.41 1.37.553.52.142 1.026.2 1.52.172h1.197c.243-.02.427-.097.552-.23l.041-.052a.69.69 0 0 0 .078-.192 1.06 1.06 0 0 0 .037-.287 3.445 3.445 0 0 1 .067-.808c.052-.24.111-.42.178-.543a1.33 1.33 0 0 1 .4-.458.681.681 0 0 1 .084-.037c.166-.056.362-.002.588.162.226.163.438.365.636.605.197.24.435.509.713.808.278.299.52.521.729.667l.208.126c.139.083.32.16.542.23.221.069.416.086.583.051l2.665-.041c.264 0 .469-.044.615-.13.145-.088.232-.184.26-.288a.811.811 0 0 0 .005-.355 1.31 1.31 0 0 0-.073-.276z"/></g></g></svg>